<svg width="401" height="499" viewBox="0 0 401 499" fill="none" xmlns="http://www.w3.org/2000/svg">
<path d="M70.7064 440.126C69.8664 440.126 69.1104 439.982 68.4384 439.694C67.7664 439.394 67.2384 438.974 66.8544 438.434C66.4704 437.894 66.2784 437.264 66.2784 436.544H68.4744C68.5224 437.084 68.7324 437.528 69.1044 437.876C69.4884 438.224 70.0224 438.398 70.7064 438.398C71.4144 438.398 71.9664 438.23 72.3624 437.894C72.7584 437.546 72.9564 437.102 72.9564 436.562C72.9564 436.142 72.8304 435.8 72.5784 435.536C72.3384 435.272 72.0324 435.068 71.6604 434.924C71.3004 434.78 70.7964 434.624 70.1484 434.456C69.3324 434.24 68.6664 434.024 68.1504 433.808C67.6464 433.58 67.2144 433.232 66.8544 432.764C66.4944 432.296 66.3144 431.672 66.3144 430.892C66.3144 430.172 66.4944 429.542 66.8544 429.002C67.2144 428.462 67.7184 428.048 68.3664 427.76C69.0144 427.472 69.7644 427.328 70.6164 427.328C71.8284 427.328 72.8184 427.634 73.5864 428.246C74.3664 428.846 74.7984 429.674 74.8824 430.73H72.6144C72.5784 430.274 72.3624 429.884 71.9664 429.56C71.5704 429.236 71.0484 429.074 70.4004 429.074C69.8124 429.074 69.3324 429.224 68.9604 429.524C68.5884 429.824 68.4024 430.256 68.4024 430.82C68.4024 431.204 68.5164 431.522 68.7444 431.774C68.9844 432.014 69.2844 432.206 69.6444 432.35C70.0044 432.494 70.4964 432.65 71.1204 432.818C71.9484 433.046 72.6204 433.274 73.1364 433.502C73.6644 433.73 74.1084 434.084 74.4684 434.564C74.8404 435.032 75.0264 435.662 75.0264 436.454C75.0264 437.09 74.8524 437.69 74.5044 438.254C74.1684 438.818 73.6704 439.274 73.0104 439.622C72.3624 439.958 71.5944 440.126 70.7064 440.126ZM90.7677 430.082L87.6897 440H85.5297L83.5317 432.674L81.5337 440H79.3737L76.2777 430.082H78.3657L80.4357 438.056L82.5417 430.082H84.6837L86.6997 438.02L88.7517 430.082H90.7677ZM93.3452 428.768C92.9732 428.768 92.6612 428.642 92.4092 428.39C92.1572 428.138 92.0312 427.826 92.0312 427.454C92.0312 427.082 92.1572 426.77 92.4092 426.518C92.6612 426.266 92.9732 426.14 93.3452 426.14C93.7052 426.14 94.0112 426.266 94.2632 426.518C94.5152 426.77 94.6412 427.082 94.6412 427.454C94.6412 427.826 94.5152 428.138 94.2632 428.39C94.0112 428.642 93.7052 428.768 93.3452 428.768ZM94.3532 430.082V440H92.3012V430.082H94.3532ZM99.4413 431.756V437.246C99.4413 437.618 99.5253 437.888 99.6933 438.056C99.8733 438.212 100.173 438.29 100.593 438.29H101.853V440H100.233C99.3093 440 98.6013 439.784 98.1093 439.352C97.6173 438.92 97.3713 438.218 97.3713 437.246V431.756H96.2013V430.082H97.3713V427.616H99.4413V430.082H101.853V431.756H99.4413ZM103.061 435.032C103.061 434.012 103.265 433.118 103.673 432.35C104.093 431.57 104.669 430.97 105.401 430.55C106.133 430.13 106.973 429.92 107.921 429.92C109.121 429.92 110.111 430.208 110.891 430.784C111.683 431.348 112.217 432.158 112.493 433.214H110.279C110.099 432.722 109.811 432.338 109.415 432.062C109.019 431.786 108.521 431.648 107.921 431.648C107.081 431.648 106.409 431.948 105.905 432.548C105.413 433.136 105.167 433.964 105.167 435.032C105.167 436.1 105.413 436.934 105.905 437.534C106.409 438.134 107.081 438.434 107.921 438.434C109.109 438.434 109.895 437.912 110.279 436.868H112.493C112.205 437.876 111.665 438.68 110.873 439.28C110.081 439.868 109.097 440.162 107.921 440.162C106.973 440.162 106.133 439.952 105.401 439.532C104.669 439.1 104.093 438.5 103.673 437.732C103.265 436.952 103.061 436.052 103.061 435.032ZM119.668 429.92C120.424 429.92 121.096 430.082 121.684 430.406C122.284 430.73 122.752 431.21 123.088 431.846C123.436 432.482 123.61 433.25 123.61 434.15V440H121.576V434.456C121.576 433.568 121.354 432.89 120.91 432.422C120.466 431.942 119.86 431.702 119.092 431.702C118.324 431.702 117.712 431.942 117.256 432.422C116.812 432.89 116.59 433.568 116.59 434.456V440H114.538V426.68H116.59V431.234C116.938 430.814 117.376 430.49 117.904 430.262C118.444 430.034 119.032 429.92 119.668 429.92ZM133.297 431.756V437.246C133.297 437.618 133.381 437.888 133.549 438.056C133.729 438.212 134.029 438.29 134.449 438.29H135.709V440H134.089C133.165 440 132.457 439.784 131.965 439.352C131.473 438.92 131.227 438.218 131.227 437.246V431.756H130.057V430.082H131.227V427.616H133.297V430.082H135.709V431.756H133.297ZM141.902 440.162C140.966 440.162 140.12 439.952 139.364 439.532C138.608 439.1 138.014 438.5 137.582 437.732C137.15 436.952 136.934 436.052 136.934 435.032C136.934 434.024 137.156 433.13 137.6 432.35C138.044 431.57 138.65 430.97 139.418 430.55C140.186 430.13 141.044 429.92 141.992 429.92C142.94 429.92 143.798 430.13 144.566 430.55C145.334 430.97 145.94 431.57 146.384 432.35C146.828 433.13 147.05 434.024 147.05 435.032C147.05 436.04 146.822 436.934 146.366 437.714C145.91 438.494 145.286 439.1 144.494 439.532C143.714 439.952 142.85 440.162 141.902 440.162ZM141.902 438.38C142.43 438.38 142.922 438.254 143.378 438.002C143.846 437.75 144.224 437.372 144.512 436.868C144.8 436.364 144.944 435.752 144.944 435.032C144.944 434.312 144.806 433.706 144.53 433.214C144.254 432.71 143.888 432.332 143.432 432.08C142.976 431.828 142.484 431.702 141.956 431.702C141.428 431.702 140.936 431.828 140.48 432.08C140.036 432.332 139.682 432.71 139.418 433.214C139.154 433.706 139.022 434.312 139.022 435.032C139.022 436.1 139.292 436.928 139.832 437.516C140.384 438.092 141.074 438.38 141.902 438.38ZM158.056 440.162C157.12 440.162 156.274 439.952 155.518 439.532C154.762 439.1 154.168 438.5 153.736 437.732C153.304 436.952 153.088 436.052 153.088 435.032C153.088 434.024 153.31 433.13 153.754 432.35C154.198 431.57 154.804 430.97 155.572 430.55C156.34 430.13 157.198 429.92 158.146 429.92C159.094 429.92 159.952 430.13 160.72 430.55C161.488 430.97 162.094 431.57 162.538 432.35C162.982 433.13 163.204 434.024 163.204 435.032C163.204 436.04 162.976 436.934 162.52 437.714C162.064 438.494 161.44 439.1 160.648 439.532C159.868 439.952 159.004 440.162 158.056 440.162ZM158.056 438.38C158.584 438.38 159.076 438.254 159.532 438.002C160 437.75 160.378 437.372 160.666 436.868C160.954 436.364 161.098 435.752 161.098 435.032C161.098 434.312 160.96 433.706 160.684 433.214C160.408 432.71 160.042 432.332 159.586 432.08C159.13 431.828 158.638 431.702 158.11 431.702C157.582 431.702 157.09 431.828 156.634 432.08C156.19 432.332 155.836 432.71 155.572 433.214C155.308 433.706 155.176 434.312 155.176 435.032C155.176 436.1 155.446 436.928 155.986 437.516C156.538 438.092 157.228 438.38 158.056 438.38ZM170.237 429.92C171.017 429.92 171.713 430.082 172.325 430.406C172.949 430.73 173.435 431.21 173.783 431.846C174.131 432.482 174.305 433.25 174.305 434.15V440H172.271V434.456C172.271 433.568 172.049 432.89 171.605 432.422C171.161 431.942 170.555 431.702 169.787 431.702C169.019 431.702 168.407 431.942 167.951 432.422C167.507 432.89 167.285 433.568 167.285 434.456V440H165.233V430.082H167.285V431.216C167.621 430.808 168.047 430.49 168.563 430.262C169.091 430.034 169.649 429.92 170.237 429.92ZM178.974 426.68V440H176.922V426.68H178.974ZM182.712 428.768C182.34 428.768 182.028 428.642 181.776 428.39C181.524 428.138 181.398 427.826 181.398 427.454C181.398 427.082 181.524 426.77 181.776 426.518C182.028 426.266 182.34 426.14 182.712 426.14C183.072 426.14 183.378 426.266 183.63 426.518C183.882 426.77 184.008 427.082 184.008 427.454C184.008 427.826 183.882 428.138 183.63 428.39C183.378 428.642 183.072 428.768 182.712 428.768ZM183.72 430.082V440H181.668V430.082H183.72ZM191.418 429.92C192.198 429.92 192.894 430.082 193.506 430.406C194.13 430.73 194.616 431.21 194.964 431.846C195.312 432.482 195.486 433.25 195.486 434.15V440H193.452V434.456C193.452 433.568 193.23 432.89 192.786 432.422C192.342 431.942 191.736 431.702 190.968 431.702C190.2 431.702 189.588 431.942 189.132 432.422C188.688 432.89 188.466 433.568 188.466 434.456V440H186.414V430.082H188.466V431.216C188.802 430.808 189.228 430.49 189.744 430.262C190.272 430.034 190.83 429.92 191.418 429.92ZM207.194 434.798C207.194 435.17 207.17 435.506 207.122 435.806H199.544C199.604 436.598 199.898 437.234 200.426 437.714C200.954 438.194 201.602 438.434 202.37 438.434C203.474 438.434 204.254 437.972 204.71 437.048H206.924C206.624 437.96 206.078 438.71 205.286 439.298C204.506 439.874 203.534 440.162 202.37 440.162C201.422 440.162 200.57 439.952 199.814 439.532C199.07 439.1 198.482 438.5 198.05 437.732C197.63 436.952 197.42 436.052 197.42 435.032C197.42 434.012 197.624 433.118 198.032 432.35C198.452 431.57 199.034 430.97 199.778 430.55C200.534 430.13 201.398 429.92 202.37 429.92C203.306 429.92 204.14 430.124 204.872 430.532C205.604 430.94 206.174 431.516 206.582 432.26C206.99 432.992 207.194 433.838 207.194 434.798ZM205.052 434.15C205.04 433.394 204.77 432.788 204.242 432.332C203.714 431.876 203.06 431.648 202.28 431.648C201.572 431.648 200.966 431.876 200.462 432.332C199.958 432.776 199.658 433.382 199.562 434.15H205.052ZM216.283 431.756V437.246C216.283 437.618 216.367 437.888 216.535 438.056C216.715 438.212 217.015 438.29 217.435 438.29H218.695V440H217.075C216.151 440 215.443 439.784 214.951 439.352C214.459 438.92 214.213 438.218 214.213 437.246V431.756H213.043V430.082H214.213V427.616H216.283V430.082H218.695V431.756H216.283ZM224.888 440.162C223.952 440.162 223.106 439.952 222.35 439.532C221.594 439.1 221 438.5 220.568 437.732C220.136 436.952 219.92 436.052 219.92 435.032C219.92 434.024 220.142 433.13 220.586 432.35C221.03 431.57 221.636 430.97 222.404 430.55C223.172 430.13 224.03 429.92 224.978 429.92C225.926 429.92 226.784 430.13 227.552 430.55C228.32 430.97 228.926 431.57 229.37 432.35C229.814 433.13 230.036 434.024 230.036 435.032C230.036 436.04 229.808 436.934 229.352 437.714C228.896 438.494 228.272 439.1 227.48 439.532C226.7 439.952 225.836 440.162 224.888 440.162ZM224.888 438.38C225.416 438.38 225.908 438.254 226.364 438.002C226.832 437.75 227.21 437.372 227.498 436.868C227.786 436.364 227.93 435.752 227.93 435.032C227.93 434.312 227.792 433.706 227.516 433.214C227.24 432.71 226.874 432.332 226.418 432.08C225.962 431.828 225.47 431.702 224.942 431.702C224.414 431.702 223.922 431.828 223.466 432.08C223.022 432.332 222.668 432.71 222.404 433.214C222.14 433.706 222.008 434.312 222.008 435.032C222.008 436.1 222.278 436.928 222.818 437.516C223.37 438.092 224.06 438.38 224.888 438.38ZM240.737 429.92C241.505 429.92 242.183 430.076 242.771 430.388C243.371 430.688 243.839 431.066 244.175 431.522V430.082H246.245V440.162C246.245 441.074 246.053 441.884 245.669 442.592C245.285 443.312 244.727 443.876 243.995 444.284C243.275 444.692 242.411 444.896 241.403 444.896C240.059 444.896 238.943 444.578 238.055 443.942C237.167 443.318 236.663 442.466 236.543 441.386H238.577C238.733 441.902 239.063 442.316 239.567 442.628C240.083 442.952 240.695 443.114 241.403 443.114C242.231 443.114 242.897 442.862 243.401 442.358C243.917 441.854 244.175 441.122 244.175 440.162V438.506C243.827 438.974 243.353 439.37 242.753 439.694C242.165 440.006 241.493 440.162 240.737 440.162C239.873 440.162 239.081 439.946 238.361 439.514C237.653 439.07 237.089 438.458 236.669 437.678C236.261 436.886 236.057 435.992 236.057 434.996C236.057 434 236.261 433.118 236.669 432.35C237.089 431.582 237.653 430.988 238.361 430.568C239.081 430.136 239.873 429.92 240.737 429.92ZM244.175 435.032C244.175 434.348 244.031 433.754 243.743 433.25C243.467 432.746 243.101 432.362 242.645 432.098C242.189 431.834 241.697 431.702 241.169 431.702C240.641 431.702 240.149 431.834 239.693 432.098C239.237 432.35 238.865 432.728 238.577 433.232C238.301 433.724 238.163 434.312 238.163 434.996C238.163 435.68 238.301 436.28 238.577 436.796C238.865 437.312 239.237 437.708 239.693 437.984C240.161 438.248 240.653 438.38 241.169 438.38C241.697 438.38 242.189 438.248 242.645 437.984C243.101 437.72 243.467 437.336 243.743 436.832C244.031 436.316 244.175 435.716 244.175 435.032ZM258.03 434.798C258.03 435.17 258.006 435.506 257.958 435.806H250.38C250.44 436.598 250.734 437.234 251.262 437.714C251.79 438.194 252.438 438.434 253.206 438.434C254.31 438.434 255.09 437.972 255.546 437.048H257.76C257.46 437.96 256.914 438.71 256.122 439.298C255.342 439.874 254.37 440.162 253.206 440.162C252.258 440.162 251.406 439.952 250.65 439.532C249.906 439.1 249.318 438.5 248.886 437.732C248.466 436.952 248.256 436.052 248.256 435.032C248.256 434.012 248.46 433.118 248.868 432.35C249.288 431.57 249.87 430.97 250.614 430.55C251.37 430.13 252.234 429.92 253.206 429.92C254.142 429.92 254.976 430.124 255.708 430.532C256.44 430.94 257.01 431.516 257.418 432.26C257.826 432.992 258.03 433.838 258.03 434.798ZM255.888 434.15C255.876 433.394 255.606 432.788 255.078 432.332C254.55 431.876 253.896 431.648 253.116 431.648C252.408 431.648 251.802 431.876 251.298 432.332C250.794 432.776 250.494 433.382 250.398 434.15H255.888ZM262.443 431.756V437.246C262.443 437.618 262.527 437.888 262.695 438.056C262.875 438.212 263.175 438.29 263.595 438.29H264.855V440H263.235C262.311 440 261.603 439.784 261.111 439.352C260.619 438.92 260.373 438.218 260.373 437.246V431.756H259.203V430.082H260.373V427.616H262.443V430.082H264.855V431.756H262.443ZM280.404 430.082V440H278.352V438.83C278.028 439.238 277.602 439.562 277.074 439.802C276.558 440.03 276.006 440.144 275.418 440.144C274.638 440.144 273.936 439.982 273.312 439.658C272.7 439.334 272.214 438.854 271.854 438.218C271.506 437.582 271.332 436.814 271.332 435.914V430.082H273.366V435.608C273.366 436.496 273.588 437.18 274.032 437.66C274.476 438.128 275.082 438.362 275.85 438.362C276.618 438.362 277.224 438.128 277.668 437.66C278.124 437.18 278.352 436.496 278.352 435.608V430.082H280.404ZM285.164 431.54C285.512 431.084 285.986 430.7 286.586 430.388C287.186 430.076 287.864 429.92 288.62 429.92C289.484 429.92 290.27 430.136 290.978 430.568C291.698 430.988 292.262 431.582 292.67 432.35C293.078 433.118 293.282 434 293.282 434.996C293.282 435.992 293.078 436.886 292.67 437.678C292.262 438.458 291.698 439.07 290.978 439.514C290.27 439.946 289.484 440.162 288.62 440.162C287.864 440.162 287.192 440.012 286.604 439.712C286.016 439.4 285.536 439.016 285.164 438.56V444.716H283.112V430.082H285.164V431.54ZM291.194 434.996C291.194 434.312 291.05 433.724 290.762 433.232C290.486 432.728 290.114 432.35 289.646 432.098C289.19 431.834 288.698 431.702 288.17 431.702C287.654 431.702 287.162 431.834 286.694 432.098C286.238 432.362 285.866 432.746 285.578 433.25C285.302 433.754 285.164 434.348 285.164 435.032C285.164 435.716 285.302 436.316 285.578 436.832C285.866 437.336 286.238 437.72 286.694 437.984C287.162 438.248 287.654 438.38 288.17 438.38C288.698 438.38 289.19 438.248 289.646 437.984C290.114 437.708 290.486 437.312 290.762 436.796C291.05 436.28 291.194 435.68 291.194 434.996ZM294.627 434.996C294.627 434 294.831 433.118 295.239 432.35C295.659 431.582 296.223 430.988 296.931 430.568C297.651 430.136 298.449 429.92 299.325 429.92C299.973 429.92 300.609 430.064 301.233 430.352C301.869 430.628 302.373 431 302.745 431.468V426.68H304.815V440H302.745V438.506C302.409 438.986 301.941 439.382 301.341 439.694C300.753 440.006 300.075 440.162 299.307 440.162C298.443 440.162 297.651 439.946 296.931 439.514C296.223 439.07 295.659 438.458 295.239 437.678C294.831 436.886 294.627 435.992 294.627 434.996ZM302.745 435.032C302.745 434.348 302.601 433.754 302.313 433.25C302.037 432.746 301.671 432.362 301.215 432.098C300.759 431.834 300.267 431.702 299.739 431.702C299.211 431.702 298.719 431.834 298.263 432.098C297.807 432.35 297.435 432.728 297.147 433.232C296.871 433.724 296.733 434.312 296.733 434.996C296.733 435.68 296.871 436.28 297.147 436.796C297.435 437.312 297.807 437.708 298.263 437.984C298.731 438.248 299.223 438.38 299.739 438.38C300.267 438.38 300.759 438.248 301.215 437.984C301.671 437.72 302.037 437.336 302.313 436.832C302.601 436.316 302.745 435.716 302.745 435.032ZM306.826 434.996C306.826 434 307.03 433.118 307.438 432.35C307.858 431.582 308.422 430.988 309.13 430.568C309.85 430.136 310.642 429.92 311.506 429.92C312.286 429.92 312.964 430.076 313.54 430.388C314.128 430.688 314.596 431.066 314.944 431.522V430.082H317.014V440H314.944V438.524C314.596 438.992 314.122 439.382 313.522 439.694C312.922 440.006 312.238 440.162 311.47 440.162C310.618 440.162 309.838 439.946 309.13 439.514C308.422 439.07 307.858 438.458 307.438 437.678C307.03 436.886 306.826 435.992 306.826 434.996ZM314.944 435.032C314.944 434.348 314.8 433.754 314.512 433.25C314.236 432.746 313.87 432.362 313.414 432.098C312.958 431.834 312.466 431.702 311.938 431.702C311.41 431.702 310.918 431.834 310.462 432.098C310.006 432.35 309.634 432.728 309.346 433.232C309.07 433.724 308.932 434.312 308.932 434.996C308.932 435.68 309.07 436.28 309.346 436.796C309.634 437.312 310.006 437.708 310.462 437.984C310.93 438.248 311.422 438.38 311.938 438.38C312.466 438.38 312.958 438.248 313.414 437.984C313.87 437.72 314.236 437.336 314.512 436.832C314.8 436.316 314.944 435.716 314.944 435.032ZM322.103 431.756V437.246C322.103 437.618 322.187 437.888 322.355 438.056C322.535 438.212 322.835 438.29 323.255 438.29H324.515V440H322.895C321.971 440 321.263 439.784 320.771 439.352C320.279 438.92 320.033 438.218 320.033 437.246V431.756H318.863V430.082H320.033V427.616H322.103V430.082H324.515V431.756H322.103ZM335.497 434.798C335.497 435.17 335.473 435.506 335.425 435.806H327.847C327.907 436.598 328.201 437.234 328.729 437.714C329.257 438.194 329.905 438.434 330.673 438.434C331.777 438.434 332.557 437.972 333.013 437.048H335.227C334.927 437.96 334.381 438.71 333.589 439.298C332.809 439.874 331.837 440.162 330.673 440.162C329.725 440.162 328.873 439.952 328.117 439.532C327.373 439.1 326.785 438.5 326.353 437.732C325.933 436.952 325.723 436.052 325.723 435.032C325.723 434.012 325.927 433.118 326.335 432.35C326.755 431.57 327.337 430.97 328.081 430.55C328.837 430.13 329.701 429.92 330.673 429.92C331.609 429.92 332.443 430.124 333.175 430.532C333.907 430.94 334.477 431.516 334.885 432.26C335.293 432.992 335.497 433.838 335.497 434.798ZM333.355 434.15C333.343 433.394 333.073 432.788 332.545 432.332C332.017 431.876 331.363 431.648 330.583 431.648C329.875 431.648 329.269 431.876 328.765 432.332C328.261 432.776 327.961 433.382 327.865 434.15H333.355ZM341.116 440.162C340.336 440.162 339.634 440.024 339.01 439.748C338.398 439.46 337.912 439.076 337.552 438.596C337.192 438.104 337 437.558 336.976 436.958H339.1C339.136 437.378 339.334 437.732 339.694 438.02C340.066 438.296 340.528 438.434 341.08 438.434C341.656 438.434 342.1 438.326 342.412 438.11C342.736 437.882 342.898 437.594 342.898 437.246C342.898 436.874 342.718 436.598 342.358 436.418C342.01 436.238 341.452 436.04 340.684 435.824C339.94 435.62 339.334 435.422 338.866 435.23C338.398 435.038 337.99 434.744 337.642 434.348C337.306 433.952 337.138 433.43 337.138 432.782C337.138 432.254 337.294 431.774 337.606 431.342C337.918 430.898 338.362 430.55 338.938 430.298C339.526 430.046 340.198 429.92 340.954 429.92C342.082 429.92 342.988 430.208 343.672 430.784C344.368 431.348 344.74 432.122 344.788 433.106H342.736C342.7 432.662 342.52 432.308 342.196 432.044C341.872 431.78 341.434 431.648 340.882 431.648C340.342 431.648 339.928 431.75 339.64 431.954C339.352 432.158 339.208 432.428 339.208 432.764C339.208 433.028 339.304 433.25 339.496 433.43C339.688 433.61 339.922 433.754 340.198 433.862C340.474 433.958 340.882 434.084 341.422 434.24C342.142 434.432 342.73 434.63 343.186 434.834C343.654 435.026 344.056 435.314 344.392 435.698C344.728 436.082 344.902 436.592 344.914 437.228C344.914 437.792 344.758 438.296 344.446 438.74C344.134 439.184 343.69 439.532 343.114 439.784C342.55 440.036 341.884 440.162 341.116 440.162ZM160.104 467.162C159.168 467.162 158.322 466.952 157.566 466.532C156.81 466.1 156.216 465.5 155.784 464.732C155.352 463.952 155.136 463.052 155.136 462.032C155.136 461.024 155.358 460.13 155.802 459.35C156.246 458.57 156.852 457.97 157.62 457.55C158.388 457.13 159.246 456.92 160.194 456.92C161.142 456.92 162 457.13 162.768 457.55C163.536 457.97 164.142 458.57 164.586 459.35C165.03 460.13 165.252 461.024 165.252 462.032C165.252 463.04 165.024 463.934 164.568 464.714C164.112 465.494 163.488 466.1 162.696 466.532C161.916 466.952 161.052 467.162 160.104 467.162ZM160.104 465.38C160.632 465.38 161.124 465.254 161.58 465.002C162.048 464.75 162.426 464.372 162.714 463.868C163.002 463.364 163.146 462.752 163.146 462.032C163.146 461.312 163.008 460.706 162.732 460.214C162.456 459.71 162.09 459.332 161.634 459.08C161.178 458.828 160.686 458.702 160.158 458.702C159.63 458.702 159.138 458.828 158.682 459.08C158.238 459.332 157.884 459.71 157.62 460.214C157.356 460.706 157.224 461.312 157.224 462.032C157.224 463.1 157.494 463.928 158.034 464.516C158.586 465.092 159.276 465.38 160.104 465.38ZM172.285 456.92C173.065 456.92 173.761 457.082 174.373 457.406C174.997 457.73 175.483 458.21 175.831 458.846C176.179 459.482 176.353 460.25 176.353 461.15V467H174.319V461.456C174.319 460.568 174.097 459.89 173.653 459.422C173.209 458.942 172.603 458.702 171.835 458.702C171.067 458.702 170.455 458.942 169.999 459.422C169.555 459.89 169.333 460.568 169.333 461.456V467H167.281V457.082H169.333V458.216C169.669 457.808 170.095 457.49 170.611 457.262C171.139 457.034 171.697 456.92 172.285 456.92ZM187.246 467.162C186.466 467.162 185.764 467.024 185.14 466.748C184.528 466.46 184.042 466.076 183.682 465.596C183.322 465.104 183.13 464.558 183.106 463.958H185.23C185.266 464.378 185.464 464.732 185.824 465.02C186.196 465.296 186.658 465.434 187.21 465.434C187.786 465.434 188.23 465.326 188.542 465.11C188.866 464.882 189.028 464.594 189.028 464.246C189.028 463.874 188.848 463.598 188.488 463.418C188.14 463.238 187.582 463.04 186.814 462.824C186.07 462.62 185.464 462.422 184.996 462.23C184.528 462.038 184.12 461.744 183.772 461.348C183.436 460.952 183.268 460.43 183.268 459.782C183.268 459.254 183.424 458.774 183.736 458.342C184.048 457.898 184.492 457.55 185.068 457.298C185.656 457.046 186.328 456.92 187.084 456.92C188.212 456.92 189.118 457.208 189.802 457.784C190.498 458.348 190.87 459.122 190.918 460.106H188.866C188.83 459.662 188.65 459.308 188.326 459.044C188.002 458.78 187.564 458.648 187.012 458.648C186.472 458.648 186.058 458.75 185.77 458.954C185.482 459.158 185.338 459.428 185.338 459.764C185.338 460.028 185.434 460.25 185.626 460.43C185.818 460.61 186.052 460.754 186.328 460.862C186.604 460.958 187.012 461.084 187.552 461.24C188.272 461.432 188.86 461.63 189.316 461.834C189.784 462.026 190.186 462.314 190.522 462.698C190.858 463.082 191.032 463.592 191.044 464.228C191.044 464.792 190.888 465.296 190.576 465.74C190.264 466.184 189.82 466.532 189.244 466.784C188.68 467.036 188.014 467.162 187.246 467.162ZM202.351 461.798C202.351 462.17 202.327 462.506 202.279 462.806H194.701C194.761 463.598 195.055 464.234 195.583 464.714C196.111 465.194 196.759 465.434 197.527 465.434C198.631 465.434 199.411 464.972 199.867 464.048H202.081C201.781 464.96 201.235 465.71 200.443 466.298C199.663 466.874 198.691 467.162 197.527 467.162C196.579 467.162 195.727 466.952 194.971 466.532C194.227 466.1 193.639 465.5 193.207 464.732C192.787 463.952 192.577 463.052 192.577 462.032C192.577 461.012 192.781 460.118 193.189 459.35C193.609 458.57 194.191 457.97 194.935 457.55C195.691 457.13 196.555 456.92 197.527 456.92C198.463 456.92 199.297 457.124 200.029 457.532C200.761 457.94 201.331 458.516 201.739 459.26C202.147 459.992 202.351 460.838 202.351 461.798ZM200.209 461.15C200.197 460.394 199.927 459.788 199.399 459.332C198.871 458.876 198.217 458.648 197.437 458.648C196.729 458.648 196.123 458.876 195.619 459.332C195.115 459.776 194.815 460.382 194.719 461.15H200.209ZM206.423 458.522C206.723 458.018 207.119 457.628 207.611 457.352C208.115 457.064 208.709 456.92 209.393 456.92V459.044H208.871C208.067 459.044 207.455 459.248 207.035 459.656C206.627 460.064 206.423 460.772 206.423 461.78V467H204.371V457.082H206.423V458.522ZM215.113 465.164L217.921 457.082H220.099L216.319 467H213.871L210.109 457.082H212.305L215.113 465.164ZM222.694 455.768C222.322 455.768 222.01 455.642 221.758 455.39C221.506 455.138 221.38 454.826 221.38 454.454C221.38 454.082 221.506 453.77 221.758 453.518C222.01 453.266 222.322 453.14 222.694 453.14C223.054 453.14 223.36 453.266 223.612 453.518C223.864 453.77 223.99 454.082 223.99 454.454C223.99 454.826 223.864 455.138 223.612 455.39C223.36 455.642 223.054 455.768 222.694 455.768ZM223.702 457.082V467H221.65V457.082H223.702ZM225.712 462.032C225.712 461.012 225.916 460.118 226.324 459.35C226.744 458.57 227.32 457.97 228.052 457.55C228.784 457.13 229.624 456.92 230.572 456.92C231.772 456.92 232.762 457.208 233.542 457.784C234.334 458.348 234.868 459.158 235.144 460.214H232.93C232.75 459.722 232.462 459.338 232.066 459.062C231.67 458.786 231.172 458.648 230.572 458.648C229.732 458.648 229.06 458.948 228.556 459.548C228.064 460.136 227.818 460.964 227.818 462.032C227.818 463.1 228.064 463.934 228.556 464.534C229.06 465.134 229.732 465.434 230.572 465.434C231.76 465.434 232.546 464.912 232.93 463.868H235.144C234.856 464.876 234.316 465.68 233.524 466.28C232.732 466.868 231.748 467.162 230.572 467.162C229.624 467.162 228.784 466.952 228.052 466.532C227.32 466.1 226.744 465.5 226.324 464.732C225.916 463.952 225.712 463.052 225.712 462.032ZM246.279 461.798C246.279 462.17 246.255 462.506 246.207 462.806H238.629C238.689 463.598 238.983 464.234 239.511 464.714C240.039 465.194 240.687 465.434 241.455 465.434C242.559 465.434 243.339 464.972 243.795 464.048H246.009C245.709 464.96 245.163 465.71 244.371 466.298C243.591 466.874 242.619 467.162 241.455 467.162C240.507 467.162 239.655 466.952 238.899 466.532C238.155 466.1 237.567 465.5 237.135 464.732C236.715 463.952 236.505 463.052 236.505 462.032C236.505 461.012 236.709 460.118 237.117 459.35C237.537 458.57 238.119 457.97 238.863 457.55C239.619 457.13 240.483 456.92 241.455 456.92C242.391 456.92 243.225 457.124 243.957 457.532C244.689 457.94 245.259 458.516 245.667 459.26C246.075 459.992 246.279 460.838 246.279 461.798ZM244.137 461.15C244.125 460.394 243.855 459.788 243.327 459.332C242.799 458.876 242.145 458.648 241.365 458.648C240.657 458.648 240.051 458.876 239.547 459.332C239.043 459.776 238.743 460.382 238.647 461.15H244.137ZM251.898 467.162C251.118 467.162 250.416 467.024 249.792 466.748C249.18 466.46 248.694 466.076 248.334 465.596C247.974 465.104 247.782 464.558 247.758 463.958H249.882C249.918 464.378 250.116 464.732 250.476 465.02C250.848 465.296 251.31 465.434 251.862 465.434C252.438 465.434 252.882 465.326 253.194 465.11C253.518 464.882 253.68 464.594 253.68 464.246C253.68 463.874 253.5 463.598 253.14 463.418C252.792 463.238 252.234 463.04 251.466 462.824C250.722 462.62 250.116 462.422 249.648 462.23C249.18 462.038 248.772 461.744 248.424 461.348C248.088 460.952 247.92 460.43 247.92 459.782C247.92 459.254 248.076 458.774 248.388 458.342C248.7 457.898 249.144 457.55 249.72 457.298C250.308 457.046 250.98 456.92 251.736 456.92C252.864 456.92 253.77 457.208 254.454 457.784C255.15 458.348 255.522 459.122 255.57 460.106H253.518C253.482 459.662 253.302 459.308 252.978 459.044C252.654 458.78 252.216 458.648 251.664 458.648C251.124 458.648 250.71 458.75 250.422 458.954C250.134 459.158 249.99 459.428 249.99 459.764C249.99 460.028 250.086 460.25 250.278 460.43C250.47 460.61 250.704 460.754 250.98 460.862C251.256 460.958 251.664 461.084 252.204 461.24C252.924 461.432 253.512 461.63 253.968 461.834C254.436 462.026 254.838 462.314 255.174 462.698C255.51 463.082 255.684 463.592 255.696 464.228C255.696 464.792 255.54 465.296 255.228 465.74C254.916 466.184 254.472 466.532 253.896 466.784C253.332 467.036 252.666 467.162 251.898 467.162Z" fill="#19294F"/>
<path d="M155.708 39.3273C156.13 36.2306 151.766 33.6886 148.487 33.4237C146.922 33.2995 145.3 33.5396 143.817 33.0179C140.605 31.9001 139.321 27.7518 136.191 26.427C133.848 25.4417 131.157 26.3194 128.88 27.462C126.611 28.6047 124.368 30.0454 121.826 30.2027C119.623 30.3435 117.222 29.5237 115.293 30.6002C113.852 31.4033 113.098 33.0593 111.774 34.0364C110.474 34.9969 108.784 35.1956 107.178 35.2867C105.572 35.3778 103.899 35.3943 102.434 36.065C100.968 36.7357 99.7591 38.2841 100.057 39.8655L155.699 39.3191L155.708 39.3273Z" fill="#F5F5F5"/>
<path d="M375.549 222.068C376.261 216.926 369 212.695 363.543 212.256C360.943 212.049 358.244 212.447 355.776 211.586C350.436 209.722 348.308 202.825 343.1 200.631C339.208 198.992 334.72 200.449 330.944 202.353C327.169 204.258 323.434 206.642 319.22 206.916C315.552 207.147 311.569 205.789 308.356 207.578C305.963 208.911 304.713 211.668 302.502 213.299C300.341 214.889 297.534 215.229 294.852 215.369C292.177 215.519 289.403 215.543 286.969 216.661C284.535 217.779 282.514 220.354 283.019 222.987L375.541 222.076L375.549 222.068Z" fill="#EBEBEB"/>
<path d="M99.4852 96.575C100.023 92.642 94.4758 89.4045 90.3026 89.065C88.3154 88.9076 86.2454 89.2057 84.3575 88.5516C80.2755 87.1274 78.6443 81.853 74.6533 80.1722C71.6725 78.9136 68.2445 80.0314 65.3548 81.4887C62.465 82.946 59.6084 84.7759 56.3875 84.9746C53.5805 85.1568 50.5335 84.1135 48.0743 85.488C46.2444 86.5064 45.2839 88.6178 43.603 89.8599C41.9553 91.077 39.8025 91.3337 37.749 91.4496C35.7039 91.5573 33.5842 91.5821 31.7212 92.435C29.8581 93.2878 28.318 95.2585 28.6989 97.2705L99.4769 96.575H99.4852Z" fill="#F5F5F5"/>
<path d="M319.292 310.914L300.877 390.891L308.66 390.875L327.125 311.668L319.292 310.914Z" fill="#E0E0E0"/>
<path d="M352.9 310.914L371.39 390.891H378.784L360.899 310.914H352.9Z" fill="#E0E0E0"/>
<path d="M306.861 250.842L317.352 305.904H329.267L318.064 250.842H306.861Z" fill="#E0E0E0"/>
<path d="M124.177 310.914L109.148 390.891H116.799L132.49 310.914H124.177Z" fill="#E0E0E0"/>
<path d="M155.77 310.914L172.951 390.452H180.51L163.917 310.914H155.77Z" fill="#E0E0E0"/>
<path d="M111.742 250.842L122.233 305.904H134.148L122.945 250.842H111.742Z" fill="#E0E0E0"/>
<path d="M88.1445 245.832L90.2891 255.843H329.624L326.826 245.832H88.1445Z" fill="#EBEBEB"/>
<path d="M92.7188 265.273L95.2442 275.284H332.965L330.804 265.273H92.7188Z" fill="#EBEBEB"/>
<path d="M97.4336 285.402L99.7934 295.413H336.769L334.533 285.402H97.4336Z" fill="#EBEBEB"/>
<path d="M371.106 305.904H115.559V315.915H371.106V305.904Z" fill="#EBEBEB"/>
<path d="M267.561 181.918C263.504 181.918 259.869 179.823 257.824 176.312C255.778 172.793 255.762 168.579 257.79 165.051L290.074 108.739C292.103 105.203 295.738 103.092 299.812 103.075H299.845C303.902 103.075 307.537 105.17 309.582 108.681L342.206 164.795C344.251 168.314 344.267 172.528 342.239 176.056C340.21 179.591 336.575 181.703 332.502 181.719L267.594 181.918H267.561ZM299.845 106.445H299.82C296.963 106.453 294.413 107.936 292.989 110.42L260.705 166.732C259.289 169.208 259.297 172.164 260.73 174.632C262.162 177.091 264.713 178.556 267.561 178.556H267.586L332.493 178.358C335.35 178.349 337.9 176.867 339.324 174.383C340.74 171.907 340.732 168.951 339.299 166.484L306.676 110.37C305.244 107.911 302.693 106.445 299.845 106.445Z" fill="#EBEBEB"/>
<path d="M293.505 130.814L295.012 151.812C295.136 153.526 296.519 154.884 298.241 154.975C300.054 155.066 301.619 153.725 301.81 151.912L303.963 130.773C304.128 129.174 302.853 127.792 301.238 127.825L296.113 127.941C294.581 127.974 293.397 129.282 293.505 130.806V130.814Z" fill="#EBEBEB"/>
<path d="M303.91 166.74C303.041 169.44 300.151 170.913 297.452 170.044C294.752 169.175 293.279 166.285 294.148 163.586C295.017 160.886 297.907 159.412 300.606 160.282C303.306 161.151 304.78 164.041 303.91 166.74Z" fill="#EBEBEB"/>
<path d="M383.008 390.786C383.008 390.902 301.516 391.001 201.012 391.001C100.509 391.001 19 390.902 19 390.786C19 390.67 100.476 390.57 201.012 390.57C301.549 390.57 383.008 390.67 383.008 390.786Z" fill="#263238"/>
<path d="M256.912 301.956L173.317 301.906C163.265 301.906 155.117 293.336 155.117 282.771L155.159 62.5376C155.159 51.9639 163.323 43.4023 173.375 43.4023L256.97 43.452C267.022 43.452 275.17 52.0302 275.17 62.5955L275.128 282.837C275.128 293.411 266.964 301.972 256.912 301.972V301.956Z" fill="#263238"/>
<path d="M256.886 51.2372H240.682C238.512 51.2289 236.749 53.1582 236.749 55.5511V58.6396C236.749 61.0243 234.985 62.9618 232.816 62.9618L201.227 62.9452C199.058 62.9452 197.294 61.0077 197.294 58.623V55.5346C197.294 53.1499 195.53 51.2124 193.361 51.2124H187.664L173.481 51.2041C166.434 51.2041 160.721 57.1989 160.721 64.6012L160.68 279.568C160.68 286.971 166.385 292.965 173.423 292.974L256.853 293.023C263.899 293.023 269.612 287.029 269.612 279.626L269.654 64.6592C269.654 57.2568 263.949 51.2621 256.911 51.2538L256.886 51.2372Z" fill="white"/>
<path d="M183.461 272.716V277.982C183.461 278.437 182.956 278.719 182.575 278.471L178.435 275.837C178.079 275.614 178.079 275.084 178.435 274.86L182.575 272.227C182.956 271.979 183.461 272.26 183.461 272.716Z" fill="#E0E0E0"/>
<path d="M217.46 275.301C217.46 277.313 215.837 278.936 213.834 278.936C211.83 278.936 210.207 277.305 210.207 275.301C210.207 273.297 211.83 271.666 213.834 271.666C215.837 271.666 217.46 273.297 217.46 275.301Z" fill="#E0E0E0"/>
<path d="M245.05 272.139H248.644C249.497 272.139 250.192 272.834 250.192 273.687V277.297C250.192 278.15 249.497 278.846 248.644 278.846H245.05C244.197 278.846 243.502 278.15 243.502 277.297V273.687C243.502 272.834 244.197 272.139 245.05 272.139Z" fill="#E0E0E0"/>
<path d="M255.495 155.878C260.836 133.768 247.242 111.515 225.132 106.174C203.022 100.834 180.769 114.428 175.428 136.538C170.087 158.648 183.681 180.901 205.791 186.242C227.901 191.582 250.155 177.988 255.495 155.878Z" fill="#F5F5F5"/>
<path d="M217.3 164.348C217.292 166.228 215.76 167.743 213.881 167.735C212.001 167.727 210.486 166.195 210.494 164.315C210.502 162.436 212.034 160.92 213.914 160.929C215.793 160.937 217.309 162.469 217.3 164.348Z" fill="#455A64"/>
<path d="M207.091 159.979C210.826 156.054 216.903 155.938 220.737 159.797C222.476 161.544 225.192 158.853 223.453 157.106C218.195 151.807 209.559 151.84 204.392 157.263C202.695 159.043 205.386 161.767 207.083 159.979H207.091Z" fill="#455A64"/>
<path d="M195.529 144.13C200.704 139.659 206.881 136.844 213.803 136.827C220.659 136.81 227.424 139.245 232.442 143.964C234.239 145.645 236.963 142.963 235.158 141.273C229.403 135.875 221.694 132.985 213.82 133.01C205.863 133.026 198.783 136.281 192.838 141.422C190.967 143.037 193.675 145.745 195.529 144.138V144.13Z" fill="#455A64"/>
<path d="M200.09 152.915C203.559 149.164 208.42 146.813 213.561 146.697C218.836 146.572 223.936 148.75 227.604 152.518C229.327 154.289 232.043 151.59 230.32 149.826C225.982 145.364 219.821 142.722 213.578 142.871C207.467 143.012 201.539 145.711 197.399 150.199C195.726 152.004 198.417 154.728 200.09 152.915Z" fill="#455A64"/>
<path d="M246.04 136.942C247.044 131.264 243.255 125.847 237.577 124.842C231.898 123.838 226.481 127.627 225.477 133.305C224.472 138.984 228.261 144.401 233.94 145.405C239.618 146.41 245.036 142.621 246.04 136.942Z" fill="#FF6533"/>
<path d="M240.065 132.198L238.584 130.717L231.95 137.35L233.432 138.832L240.065 132.198Z" fill="white"/>
<path d="M233.429 130.727L231.947 132.208L238.581 138.842L240.062 137.36L233.429 130.727Z" fill="white"/>
<path d="M212.69 74.2284C213.212 73.9137 213.766 73.6736 214.338 73.508L214.677 71.8768L217.434 71.8271L217.832 73.45C218.411 73.5908 218.974 73.8144 219.504 74.1124L220.895 73.2016L222.883 75.1226L222.022 76.5468C222.336 77.0684 222.576 77.6232 222.742 78.1945L224.373 78.534L224.423 81.2913L222.8 81.6887C222.659 82.2683 222.436 82.8314 222.137 83.3613L223.048 84.7523L221.136 86.7396L219.711 85.8784C219.19 86.1931 218.635 86.4332 218.064 86.5988L217.724 88.23L214.967 88.2796L214.569 86.6568C213.99 86.516 213.427 86.2924 212.897 85.9943L211.506 86.9051L209.519 84.9842L210.38 83.56C210.065 83.0384 209.825 82.4836 209.659 81.9123L208.028 81.5728L207.979 78.8155L209.601 78.4181C209.742 77.8385 209.966 77.2754 210.264 76.7455L209.353 75.3545L211.274 73.3672L212.698 74.2284H212.69ZM214.164 77.9047C213.029 79.0805 213.062 80.9518 214.238 82.0944C215.414 83.2288 217.285 83.1957 218.428 82.0199C219.562 80.8441 219.529 78.9728 218.353 77.8302C217.178 76.6958 215.306 76.7289 214.164 77.9047Z" fill="#E0E0E0"/>
<path d="M177.677 80.4163C176.808 80.4163 175.707 80.3998 174.597 80.3749C173.28 80.3501 171.964 80.3253 171.045 80.3335C170.821 80.3335 170.631 80.1514 170.631 79.9278C170.631 79.696 170.813 79.5138 171.037 79.5055C171.956 79.4973 173.289 79.5221 174.614 79.5469C175.93 79.5718 177.247 79.5966 178.166 79.5883C178.389 79.5883 178.58 79.7705 178.58 79.9941C178.58 80.2259 178.398 80.4081 178.174 80.4163C178.017 80.4163 177.851 80.4163 177.677 80.4163Z" fill="#263238"/>
<path d="M173.561 83.1826C173.445 83.1826 173.338 83.1329 173.255 83.0418L170.73 80.2018C170.589 80.0444 170.589 79.796 170.738 79.6387L173.197 77.0553C173.354 76.8897 173.619 76.8815 173.785 77.0388C173.95 77.1961 173.959 77.4611 173.801 77.6267L171.607 79.9368L173.876 82.4953C174.025 82.6692 174.008 82.9259 173.843 83.0832C173.76 83.1495 173.669 83.1909 173.57 83.1909L173.561 83.1826Z" fill="#263238"/>
<path d="M258.901 77.9965C259.609 77.9965 260.184 77.4219 260.184 76.7131C260.184 76.0043 259.609 75.4297 258.901 75.4297C258.192 75.4297 257.617 76.0043 257.617 76.7131C257.617 77.4219 258.192 77.9965 258.901 77.9965Z" fill="#263238"/>
<path d="M260.19 80.7629C260.19 81.475 259.61 82.0463 258.906 82.0463C258.203 82.0463 257.623 81.4667 257.623 80.7629C257.623 80.0591 258.203 79.4795 258.906 79.4795C259.61 79.4795 260.19 80.0591 260.19 80.7629Z" fill="#263238"/>
<path d="M258.901 86.102C259.609 86.102 260.184 85.5274 260.184 84.8186C260.184 84.1098 259.609 83.5352 258.901 83.5352C258.192 83.5352 257.617 84.1098 257.617 84.8186C257.617 85.5274 258.192 86.102 258.901 86.102Z" fill="#263238"/>
<path d="M187.558 202.852C187.558 202.968 184.924 203.067 181.687 203.067C178.449 203.067 175.816 202.968 175.816 202.852C175.816 202.736 178.449 202.637 181.687 202.637C184.924 202.637 187.558 202.736 187.558 202.852Z" fill="#263238"/>
<path d="M208.647 216.598C208.647 216.714 201.427 216.813 192.526 216.813C183.625 216.813 176.404 216.714 176.404 216.598C176.404 216.482 183.625 216.383 192.526 216.383C201.427 216.383 208.647 216.482 208.647 216.598Z" fill="#263238"/>
<path d="M208.647 230.25C208.647 230.366 201.427 230.466 192.526 230.466C183.625 230.466 176.404 230.366 176.404 230.25C176.404 230.135 183.625 230.035 192.526 230.035C201.427 230.035 208.647 230.135 208.647 230.25Z" fill="#263238"/>
<path d="M251.272 211.447H239.481C236.632 211.447 234.322 213.755 234.322 216.602C234.322 219.448 236.632 221.756 239.481 221.756H251.272C254.121 221.756 256.43 219.448 256.43 216.602C256.43 213.755 254.121 211.447 251.272 211.447Z" fill="#EBEBEB"/>
<path d="M243.736 216.598C243.736 218.982 241.799 220.92 239.414 220.92C237.029 220.92 235.092 218.982 235.092 216.598C235.092 214.213 237.029 212.275 239.414 212.275C241.799 212.275 243.736 214.213 243.736 216.598Z" fill="#E0E0E0"/>
<path d="M251.28 235.411H239.481C236.632 235.411 234.322 233.101 234.322 230.252C234.322 227.404 236.632 225.094 239.481 225.094H251.28C254.128 225.094 256.438 227.404 256.438 230.252C256.438 233.101 254.128 235.411 251.28 235.411Z" fill="#EBEBEB"/>
<path d="M239.414 234.576C241.801 234.576 243.736 232.641 243.736 230.254C243.736 227.867 241.801 225.932 239.414 225.932C237.027 225.932 235.092 227.867 235.092 230.254C235.092 232.641 237.027 234.576 239.414 234.576Z" fill="#E0E0E0"/>
<path d="M208.647 244.006C208.647 244.122 201.427 244.222 192.526 244.222C183.625 244.222 176.404 244.122 176.404 244.006C176.404 243.89 183.625 243.791 192.526 243.791C201.427 243.791 208.647 243.89 208.647 244.006Z" fill="#263238"/>
<path d="M251.28 250.686H239.481C236.632 250.686 234.322 248.376 234.322 245.528C234.322 242.679 236.632 240.369 239.481 240.369H251.28C254.128 240.369 256.438 242.679 256.438 245.528C256.438 248.376 254.128 250.686 251.28 250.686Z" fill="#EBEBEB"/>
<path d="M239.414 249.851C241.801 249.851 243.736 247.916 243.736 245.529C243.736 243.142 241.801 241.207 239.414 241.207C237.027 241.207 235.092 243.142 235.092 245.529C235.092 247.916 237.027 249.851 239.414 249.851Z" fill="#E0E0E0"/>
<path d="M349.772 65.7179C350.959 58.3593 345.957 51.4309 338.598 50.243C331.24 49.0552 324.311 54.0575 323.124 61.4162C321.936 68.7749 326.938 75.7032 334.297 76.8911C341.655 78.079 348.584 73.0766 349.772 65.7179Z" fill="#FF6533"/>
<path d="M334.529 93.7417C334.455 93.7417 334.389 91.2494 334.389 88.1775C334.389 85.1056 334.455 82.6133 334.529 82.6133C334.604 82.6133 334.67 85.1056 334.67 88.1775C334.67 91.2494 334.604 93.7417 334.529 93.7417Z" fill="#FF6533"/>
<path d="M326.752 79.4732C326.819 79.5146 325.552 81.8413 323.921 84.6648C322.289 87.4966 320.907 89.7571 320.84 89.7157C320.774 89.6743 322.041 87.3558 323.672 84.5241C325.303 81.6923 326.686 79.4318 326.752 79.4732Z" fill="#FF6533"/>
<path d="M318.77 74.4973C318.819 74.5553 317.404 75.7642 315.615 77.18C313.827 78.6042 312.336 79.7055 312.286 79.6475C312.237 79.5895 313.644 78.3807 315.441 76.9648C317.23 75.5406 318.72 74.4393 318.77 74.4973Z" fill="#FF6533"/>
<path d="M347.995 88.2599C347.995 88.2599 347.838 87.7382 347.639 86.8936C347.449 86.0408 347.167 84.8733 346.828 83.5899C346.48 82.3065 346.132 81.1556 345.875 80.3276C345.619 79.4913 345.461 78.9779 345.495 78.9613C345.528 78.9448 345.76 79.4416 346.066 80.2613C346.372 81.081 346.753 82.232 347.101 83.5154C347.449 84.8071 347.697 85.9911 347.838 86.8522C347.979 87.7134 348.037 88.2516 347.995 88.2599Z" fill="#FF6533"/>
<path d="M361.679 78.5471C361.63 78.6051 359.841 77.1312 357.688 75.2517C355.536 73.3721 353.838 71.7989 353.888 71.7409C353.937 71.6829 355.726 73.1568 357.879 75.0364C360.032 76.916 361.729 78.4892 361.679 78.5471Z" fill="#FF6533"/>
<path d="M366.923 65.2001C366.923 65.2001 366.294 65.1339 365.292 64.9683C364.29 64.8027 362.907 64.5874 361.376 64.4135C359.844 64.2397 358.445 64.132 357.434 64.0658C356.424 63.9995 355.795 63.9664 355.795 63.925C355.795 63.8919 356.424 63.8505 357.443 63.8671C358.461 63.8836 359.869 63.9499 361.409 64.132C362.949 64.3059 364.34 64.5543 365.334 64.7779C366.327 64.9931 366.932 65.1753 366.923 65.2084V65.2001Z" fill="#FF6533"/>
<path d="M366.938 52.0762C366.955 52.1507 364.032 52.929 360.413 53.815C356.787 54.7009 353.839 55.3468 353.822 55.2723C353.806 55.1977 356.729 54.4194 360.347 53.5335C363.965 52.6475 366.921 52.0016 366.938 52.0762Z" fill="#FF6533"/>
<path d="M351.685 36.7812C351.751 36.8227 350.352 39.05 348.563 41.7576C346.775 44.4652 345.268 46.6262 345.201 46.5848C345.135 46.5434 346.535 44.3161 348.323 41.6085C350.112 38.9009 351.619 36.7398 351.685 36.7895V36.7812Z" fill="#FF6533"/>
<path d="M336.556 33.5859C336.556 33.5859 336.589 34.298 336.572 35.4407C336.556 36.5833 336.531 38.1648 336.539 39.9036C336.539 41.6507 336.564 43.2239 336.589 44.3666C336.606 45.5092 336.614 46.213 336.572 46.2213C336.531 46.2213 336.457 45.5175 336.39 44.3749C336.316 43.2322 336.258 41.6507 336.258 39.9036C336.258 38.1565 336.307 36.575 336.382 35.4324C336.448 34.2897 336.523 33.5859 336.564 33.5859H336.556Z" fill="#FF6533"/>
<path d="M325.099 47.8598C325.033 47.9012 323.609 45.6988 321.928 42.9332C320.239 40.1759 318.93 37.8989 318.997 37.8658C319.063 37.8244 320.487 40.0269 322.168 42.7924C323.857 45.5497 325.165 47.8184 325.099 47.8598Z" fill="#FF6533"/>
<path d="M318.252 53.6819C318.252 53.6819 317.697 53.6405 316.82 53.4584C315.942 53.2762 314.741 52.9781 313.425 52.589C312.108 52.1998 310.941 51.7941 310.105 51.4712C309.268 51.1482 308.763 50.9164 308.78 50.8833C308.796 50.8419 309.326 51.0075 310.171 51.2807C311.024 51.554 312.199 51.9266 313.508 52.3157C314.816 52.7049 316.008 53.0278 316.869 53.2596C317.73 53.4915 318.269 53.6405 318.26 53.6819H318.252Z" fill="#FF6533"/>
<path d="M315.261 64.0472C315.261 64.1217 313.34 64.3784 310.955 64.6019C308.571 64.8338 306.633 64.958 306.625 64.8752C306.625 64.8007 308.546 64.544 310.931 64.3204C313.315 64.0886 315.253 63.9644 315.261 64.0472Z" fill="#FF6533"/>
<path d="M306.057 304.58C310.081 333.246 314.105 361.92 318.137 390.585L321.284 390.684C319.28 361.472 317.144 331.681 306.065 304.58H306.057Z" fill="#455A64"/>
<path d="M339.6 300.555C331.163 309.796 327.768 322.506 325.632 334.835C322.602 352.322 322.328 372.964 323.231 390.684L327.636 390.783C325.847 360.172 329.987 329.668 339.592 300.547L339.6 300.555Z" fill="#455A64"/>
<path d="M308.276 355.46C307.307 351.196 306.197 346.866 303.763 343.239C300.476 338.337 295.127 335.232 289.737 332.823C284.355 330.413 278.683 328.476 273.822 325.139C279.254 334.04 291.575 336.408 297.851 344.738C300.973 348.878 302.273 354.078 303.49 359.12C306.156 370.116 307.804 379.63 310.47 390.626H314.039C312.863 378.678 310.934 367.177 308.267 355.469L308.276 355.46Z" fill="#455A64"/>
<path d="M330.863 390.683C330.863 390.683 333.885 356.528 336.129 350.252C338.373 343.984 359.57 326.654 359.372 327.465C359.165 328.277 343.474 347.238 341.23 351.113C338.986 354.988 335.111 390.675 335.111 390.675H330.863V390.683Z" fill="#455A64"/>
<path d="M230.657 354.965C232.355 355.57 233.663 357.019 234.383 358.667C235.104 360.314 235.278 362.161 235.187 363.958C235.021 367.435 233.282 371.054 231.353 373.943C228.281 371.592 227.32 367.212 226.981 364.959C226.435 361.399 227.61 354.626 230.666 354.965" fill="#FF6533"/>
<path d="M235.103 379.431C234.507 377.51 235.186 375.316 236.594 373.884C238.001 372.451 240.063 371.747 242.075 371.772C243.003 371.78 244.021 371.987 244.601 372.716C245.139 373.395 245.147 374.397 244.799 375.192C244.452 375.987 243.789 376.608 243.085 377.113C240.668 378.86 238.01 380.102 235.103 379.431Z" fill="#FF6533"/>
<path d="M232.067 390.262C232.067 390.262 232.067 390.005 232.125 389.55C232.183 389.045 232.257 388.391 232.348 387.612C232.564 385.989 232.829 383.663 233.93 381.361C235.015 379.059 236.629 377.312 238.02 376.401C238.716 375.937 239.328 375.648 239.759 375.49C239.974 375.399 240.148 375.366 240.264 375.325C240.38 375.292 240.446 375.275 240.446 375.283C240.471 375.341 239.453 375.59 238.12 376.542C236.778 377.469 235.222 379.2 234.153 381.46C233.077 383.721 232.779 386.014 232.522 387.629C232.398 388.44 232.299 389.103 232.216 389.558C232.133 390.014 232.075 390.262 232.059 390.262H232.067Z" fill="#263238"/>
<path d="M230.216 360.205C230.216 360.205 230.241 360.313 230.274 360.511C230.299 360.743 230.34 361.033 230.382 361.397C230.473 362.167 230.589 363.285 230.729 364.668C231.003 367.425 231.317 371.251 231.574 375.474C231.831 379.705 231.972 383.53 232.038 386.304C232.071 387.687 232.087 388.813 232.087 389.591C232.087 389.955 232.087 390.253 232.087 390.485C232.087 390.692 232.079 390.8 232.071 390.8C232.063 390.8 232.054 390.692 232.038 390.485C232.029 390.253 232.013 389.955 231.996 389.591C231.963 388.788 231.922 387.67 231.864 386.312C231.748 383.538 231.582 379.713 231.326 375.49C231.069 371.267 230.779 367.45 230.556 364.685C230.448 363.327 230.357 362.217 230.291 361.414C230.266 361.05 230.241 360.752 230.224 360.52C230.216 360.313 230.208 360.205 230.224 360.205H230.216Z" fill="#263238"/>
<path d="M230.211 381.859C229.275 377.727 226.22 374.126 222.278 372.552C221.276 372.147 219.985 371.931 219.24 372.701C218.486 373.48 218.751 374.763 219.206 375.748C221.111 379.83 225.673 382.497 230.161 382.149" fill="#FF6533"/>
<path d="M222.965 375.799C222.965 375.799 223.197 375.865 223.602 376.031C223.801 376.113 224.05 376.213 224.323 376.354C224.596 376.503 224.919 376.635 225.25 376.85C225.581 377.057 225.954 377.273 226.318 377.546C226.699 377.803 227.072 378.117 227.461 378.457C228.223 379.152 229.001 379.98 229.688 380.966C230.359 381.951 230.872 382.978 231.237 383.938C231.411 384.427 231.568 384.89 231.667 385.337C231.791 385.776 231.858 386.199 231.924 386.588C231.998 386.969 232.007 387.325 232.04 387.631C232.073 387.937 232.073 388.202 232.065 388.426C232.065 388.865 232.048 389.097 232.032 389.097C231.974 389.097 232.015 388.136 231.742 386.621C231.667 386.24 231.593 385.826 231.46 385.395C231.353 384.957 231.187 384.501 231.013 384.029C230.632 383.085 230.135 382.083 229.473 381.115C228.802 380.154 228.041 379.326 227.304 378.639C226.923 378.299 226.558 377.985 226.194 377.72C225.838 377.438 225.482 377.215 225.159 377.008C223.851 376.196 222.948 375.849 222.973 375.799H222.965Z" fill="#263238"/>
<path d="M85.1414 345.193L61.8496 364.295L85.4644 393.392C88.1057 390.966 81.4651 371.383 81.4651 371.383L96.8909 359.758L85.1332 345.193H85.1414Z" fill="#455A64"/>
<g opacity="0.6">
<path d="M75.4297 361.364C74.8169 360.925 73.873 361.049 73.4093 361.645C72.9456 362.241 73.0616 363.202 73.666 363.649C74.2705 364.096 75.4131 363.98 75.8106 363.343C76.208 362.705 76.001 361.579 75.3138 361.281" fill="white"/>
</g>
<g opacity="0.6">
<path d="M61.9434 364.221L64.2866 362.283L85.9307 391.131C85.9307 391.131 86.411 392.886 85.376 393.474L61.9434 364.221Z" fill="white"/>
</g>
<path d="M82.0035 371.74C81.8545 371.848 81.2169 371.193 80.1902 370.862C79.1717 370.506 78.2692 370.647 78.2195 370.473C78.1367 370.316 79.1635 369.844 80.3972 370.258C81.6309 370.663 82.1608 371.665 82.0035 371.74Z" fill="#263238"/>
<path d="M83.2177 375.811C83.1101 375.952 82.3649 375.538 81.3713 375.538C80.3776 375.513 79.6324 375.919 79.5248 375.77C79.3923 375.654 80.1458 374.884 81.3795 374.901C82.6133 374.901 83.3502 375.696 83.2177 375.803V375.811Z" fill="#263238"/>
<path d="M80.9707 380.516C80.8382 380.408 81.3847 379.638 82.4611 379.373C83.5375 379.1 84.3821 379.522 84.3158 379.679C84.2662 379.853 83.4961 379.762 82.6184 379.994C81.7325 380.209 81.1032 380.648 80.9707 380.524V380.516Z" fill="#263238"/>
<path d="M85.2235 368.702C85.0497 368.751 84.7102 367.94 84.0064 367.178C83.3191 366.408 82.5408 366.002 82.5988 365.828C82.6319 365.663 83.6586 365.845 84.4783 366.747C85.3063 367.65 85.3974 368.677 85.2235 368.702Z" fill="#263238"/>
<path d="M88.1121 365.208C88.0541 365.258 87.5076 364.769 86.9363 363.743C86.6548 363.238 86.3733 362.592 86.1663 361.838C86.0669 361.466 85.9841 361.06 85.9344 360.638C85.9096 360.431 85.8682 360.207 85.9179 359.917C85.9344 359.636 86.2408 359.247 86.6217 359.238C86.9694 359.205 87.2758 359.387 87.4497 359.594C87.6318 359.801 87.7312 360.008 87.814 360.199C87.9961 360.588 88.1369 360.977 88.2363 361.358C88.435 362.12 88.4847 362.832 88.4433 363.42C88.3688 364.604 88.021 365.266 87.9547 365.241C87.8554 365.216 88.0375 364.529 87.9961 363.42C87.9713 362.865 87.8885 362.219 87.6732 361.524C87.5656 361.176 87.4248 360.828 87.2509 360.48C87.0853 360.108 86.8701 359.843 86.6713 359.876C86.5968 359.892 86.572 359.901 86.5306 360.041C86.4975 360.174 86.5223 360.364 86.5389 360.571C86.5803 360.969 86.6465 361.341 86.721 361.697C86.8783 362.41 87.1019 363.031 87.3255 363.544C87.7726 364.562 88.1783 365.15 88.0955 365.208H88.1121Z" fill="#263238"/>
<path d="M87.7593 365.18C87.693 365.147 87.9745 364.451 88.8522 363.656C89.2911 363.259 89.879 362.861 90.6076 362.563C90.9719 362.414 91.3694 362.298 91.7917 362.215C92.2139 362.149 92.7687 362.05 93.2821 362.547C93.5305 362.828 93.4973 363.25 93.3731 363.482C93.2572 363.739 93.0999 363.896 92.9591 364.062C92.6611 364.393 92.3216 364.658 91.9821 364.857C91.2866 365.271 90.5662 365.436 89.97 365.453C88.7529 365.494 88.107 365.039 88.1401 364.989C88.1733 364.882 88.8522 365.155 89.9286 365.006C90.4586 364.931 91.0878 364.741 91.6757 364.352C91.9655 364.161 92.2471 363.929 92.4955 363.64C92.7687 363.342 92.926 363.027 92.7935 362.936C92.6776 362.787 92.2471 362.729 91.8993 362.812C91.5184 362.878 91.1541 362.969 90.8146 363.093C90.1439 363.342 89.5726 363.665 89.1337 363.987C88.2478 364.642 87.8421 365.221 87.751 365.163L87.7593 365.18Z" fill="#263238"/>
<path d="M74.5859 360.802L74.8675 390.925L112.343 390.768C112.111 387.191 92.6862 380.086 92.6862 380.086L93.2989 360.777L74.5859 360.802Z" fill="#455A64"/>
<g opacity="0.6">
<path d="M81.0977 378.504C80.3774 378.703 79.8723 379.522 80.0462 380.251C80.22 380.98 81.048 381.493 81.7684 381.311C82.4971 381.121 83.1263 380.16 82.8697 379.448C82.6213 378.736 81.6111 378.189 80.9487 378.545" fill="white"/>
</g>
<g opacity="0.6">
<path d="M74.8656 390.8L74.8242 387.762L110.867 388.987C110.867 388.987 112.532 389.716 112.341 390.892L74.8656 390.809V390.8Z" fill="white"/>
</g>
<path d="M93.2995 379.886C93.2995 380.068 92.3804 380.159 91.4779 380.747C90.5671 381.318 90.1034 382.113 89.9378 382.039C89.7722 382.006 90.0372 380.913 91.1384 380.209C92.2314 379.505 93.3409 379.712 93.2995 379.886Z" fill="#263238"/>
<path d="M97.2395 381.492C97.2809 381.666 96.4943 381.981 95.8733 382.759C95.2358 383.521 95.0784 384.357 94.8963 384.349C94.7224 384.382 94.5899 383.305 95.3765 382.353C96.1549 381.393 97.2313 381.318 97.2395 381.492Z" fill="#263238"/>
<path d="M99.4932 386.188C99.3276 386.229 99.0709 385.31 99.5346 384.308C99.99 383.298 100.851 382.901 100.934 383.05C101.042 383.199 100.487 383.737 100.114 384.573C99.7251 385.393 99.6754 386.163 99.4932 386.188Z" fill="#263238"/>
<path d="M92.9522 375.466C92.8777 375.632 92.0331 375.383 90.9981 375.466C89.9631 375.516 89.16 375.872 89.0606 375.714C88.953 375.582 89.7396 374.903 90.9567 374.828C92.1739 374.746 93.035 375.325 92.944 375.474L92.9522 375.466Z" fill="#263238"/>
<path d="M92.0367 371.028C92.0367 371.103 91.3163 371.219 90.1571 371.028C89.5858 370.929 88.9068 370.747 88.1947 370.432C87.8387 370.275 87.4744 370.084 87.1183 369.861C86.9444 369.753 86.7374 369.637 86.547 369.422C86.34 369.231 86.2241 368.743 86.4559 368.445C86.6464 368.155 86.9858 368.031 87.2591 368.022C87.5323 368.014 87.7559 368.064 87.9629 368.113C88.3769 368.213 88.7743 368.354 89.1304 368.511C89.8507 368.834 90.4304 369.24 90.8692 369.637C91.7386 370.44 92.045 371.119 91.9787 371.161C91.8959 371.218 91.4736 370.647 90.5794 369.993C90.1405 369.662 89.5692 369.322 88.8985 369.057C88.5591 368.925 88.203 368.809 87.8221 368.726C87.4247 368.627 87.0852 368.619 86.9858 368.801C86.9527 368.867 86.9444 368.892 87.0272 369.008C87.11 369.115 87.2757 369.215 87.4413 369.331C87.7725 369.546 88.1119 369.728 88.4349 369.894C89.089 370.217 89.7183 370.432 90.2565 370.581C91.3329 370.879 92.0367 370.92 92.0367 371.02V371.028Z" fill="#263238"/>
<path d="M91.7969 371.292C91.7307 371.317 91.3664 370.663 91.2918 369.479C91.2587 368.891 91.3167 368.179 91.5402 367.426C91.6562 367.053 91.8052 366.664 92.0122 366.283C92.2275 365.91 92.4924 365.414 93.2045 365.331C93.5771 365.314 93.8835 365.604 93.9911 365.852C94.1153 366.109 94.1402 366.324 94.1899 366.54C94.2644 366.978 94.2561 367.409 94.1899 367.806C94.0739 368.601 93.751 369.272 93.395 369.752C92.6663 370.729 91.9046 370.945 91.888 370.887C91.83 370.796 92.4593 370.44 93.0224 369.504C93.2956 369.04 93.5357 368.436 93.6103 367.74C93.6434 367.392 93.6351 367.028 93.5688 366.656C93.5109 366.258 93.3536 365.935 93.2045 365.977C93.0224 365.977 92.6994 366.275 92.5504 366.598C92.36 366.937 92.2109 367.277 92.0867 367.616C91.8549 368.295 91.7555 368.941 91.7307 369.487C91.681 370.589 91.8797 371.276 91.7804 371.301L91.7969 371.292Z" fill="#263238"/>
<path d="M77.7968 186.308C77.7968 186.308 72.5472 191.93 69.9638 197.32C67.3804 202.71 65.7327 215.569 65.7327 215.569C65.7327 215.569 58.4794 231.724 59.5806 239.987C60.6819 248.251 68.0677 304.779 68.0677 304.779C68.0677 304.779 67.7034 359.725 72.9364 369.529L74.1038 374.82L95.2346 371.069L95.1021 367.898L100.095 260.158L112.805 186.804L77.7968 186.316V186.308Z" fill="#263238"/>
<path d="M124.422 202.33C124.422 202.33 137.057 271.874 138.167 283.947C139.285 296.019 96.2863 359.66 96.2863 359.66L76.6211 339.183L104.84 286.729L95.6652 233.869L108.425 187.161L121.822 187.633L124.414 202.33H124.422Z" fill="#263238"/>
<path d="M69.668 352.421C69.668 352.421 69.6762 352.951 69.817 353.961C69.9495 354.972 70.1979 356.454 70.5457 358.366C71.2495 362.192 72.3838 367.739 73.9156 374.678L73.9488 374.819L74.0978 374.794C80.0677 373.751 87.2383 372.492 95.2368 371.093L95.3941 371.068V370.902C95.9903 356.404 96.6941 339.066 97.4476 320.485C98.2259 300.489 98.9546 281.941 99.5424 266.731V266.747C101.124 254.526 102.432 244.416 103.351 237.345C103.79 233.834 104.138 231.077 104.378 229.172C104.486 228.245 104.577 227.533 104.635 227.028C104.693 226.539 104.701 226.291 104.701 226.291C104.701 226.291 104.651 226.539 104.577 227.02C104.502 227.525 104.403 228.237 104.262 229.156C103.997 231.052 103.616 233.809 103.128 237.312C102.167 244.375 100.801 254.476 99.1533 266.689V266.706C98.5323 281.917 97.7871 300.464 96.9756 320.46C96.247 339.049 95.5763 356.379 95.005 370.886L95.1706 370.695C87.1803 372.128 80.0181 373.42 74.0481 374.496L74.222 374.612C72.6488 367.69 71.4647 362.15 70.7113 358.342C70.3387 356.437 70.0571 354.955 69.9081 353.953C69.817 353.456 69.7756 353.067 69.7342 352.81C69.7011 352.554 69.668 352.421 69.668 352.421Z" fill="#455A64"/>
<path d="M45.1309 157.528C45.1309 157.528 58.2134 129.326 61.3018 127.828C64.3903 126.329 73.2665 125.832 74.4671 127.513L51.018 161.279L45.1309 157.528Z" fill="#455A64"/>
<path d="M45.8097 153.718C45.2301 153.404 44.5511 153.313 43.9135 153.47H43.897C39.8397 154.489 24.977 158.471 23.321 162.686C21.4 167.579 33.1494 231.17 34.6647 232.892C36.1799 234.615 59.5463 231.717 60.2584 229.009C60.9705 226.293 52.6573 157.751 52.6573 157.751L45.8097 153.702V153.718Z" fill="#455A64"/>
<path d="M27.3669 197.039C27.3669 197.039 26.0421 197.114 24.7255 200.045C23.409 202.976 25.7274 226.698 27.4745 229.124C29.2216 231.55 34.3138 232.064 34.3138 232.064L27.3669 197.039Z" fill="#455A64"/>
<path d="M53.4112 230.311C53.4112 230.311 53.3615 230.261 53.2952 230.153C53.2124 230.021 53.1131 229.864 52.9889 229.665C52.7156 229.234 52.3513 228.58 51.9207 227.711C51.0596 225.98 50.0329 223.355 49.2546 219.985C48.4597 216.615 47.8801 212.533 47.3998 208.004C46.9196 203.467 46.3814 198.482 45.8266 193.249C44.7005 182.783 43.7566 173.286 43.6076 166.38C43.5248 162.927 43.591 160.137 43.6986 158.208C43.7483 157.247 43.8063 156.494 43.856 155.989C43.8808 155.757 43.8974 155.567 43.9139 155.417C43.9305 155.285 43.9388 155.219 43.947 155.219C43.947 155.219 43.9553 155.285 43.9553 155.417C43.9553 155.575 43.947 155.765 43.9388 155.997C43.9222 156.544 43.8974 157.28 43.8642 158.216C43.8146 160.145 43.7897 162.927 43.9139 166.372C44.1458 173.261 45.1311 182.742 46.2572 193.208C46.8037 198.441 47.3253 203.417 47.7973 207.963C48.2527 212.5 48.7992 216.566 49.5526 219.927C50.2896 223.289 51.2666 225.906 52.0781 227.653C52.4838 228.522 52.8233 229.193 53.0717 229.632C53.1793 229.839 53.2704 230.004 53.3449 230.137C53.4029 230.253 53.4277 230.311 53.4277 230.319L53.4112 230.311Z" fill="#263238"/>
<path d="M45.9512 192.594C45.9512 192.66 44.8914 192.818 43.1857 193.116C41.4717 193.414 39.1202 193.869 36.5533 194.499C33.9865 195.136 31.6847 195.832 30.0369 196.37C28.3809 196.908 27.3708 197.264 27.3459 197.198C27.3376 197.173 27.5778 197.049 28.0249 196.85C28.472 196.651 29.1261 196.386 29.9376 196.08C31.5687 195.467 33.8623 194.722 36.454 194.076C39.0374 193.439 41.422 193.033 43.1443 192.809C44.0054 192.702 44.7092 192.627 45.1977 192.594C45.6863 192.561 45.9512 192.561 45.9595 192.594H45.9512Z" fill="#263238"/>
<path d="M27.0645 194.406C27.0645 194.406 27.1142 194.539 27.1638 194.795C27.2218 195.102 27.288 195.474 27.3626 195.922C27.5364 196.973 27.7683 198.372 28.0581 200.078C28.646 203.581 29.4988 208.424 30.5587 213.74C31.6268 219.056 32.7115 223.85 33.5229 227.311C33.9204 228.992 34.2433 230.375 34.4917 231.41C34.5911 231.857 34.6739 232.221 34.7401 232.528C34.7898 232.784 34.8146 232.925 34.7981 232.925C34.7815 232.925 34.7318 232.801 34.6573 232.553C34.5662 232.254 34.4586 231.89 34.3261 231.451C34.0446 230.499 33.672 229.108 33.2249 227.386C32.3389 223.941 31.2045 219.155 30.1281 213.831C29.06 208.507 28.2568 203.655 27.7434 200.136C27.4868 198.372 27.2963 196.948 27.1887 195.963C27.139 195.508 27.0976 195.135 27.0645 194.82C27.0396 194.555 27.0396 194.423 27.0479 194.423L27.0645 194.406Z" fill="#263238"/>
<path d="M43.7005 165.784C43.6425 165.784 43.6757 165.105 43.833 164.021C43.982 162.944 44.2636 161.462 44.6858 159.848C45.1081 158.241 45.6049 156.809 46.0024 155.799C46.3998 154.788 46.7062 154.184 46.7559 154.201C46.8718 154.25 45.9361 156.767 45.0998 159.955C44.247 163.143 43.8247 165.801 43.6922 165.776L43.7005 165.784Z" fill="#263238"/>
<path d="M125.776 105.399C125.643 103.006 125.337 91.3557 125.204 89.592C125.014 87.1991 124.029 84.8227 122.273 83.1832C120.518 81.552 117.785 80.8482 115.633 81.8998C114.208 82.2559 113.091 83.3654 112.693 84.7813C107.791 102.211 108.561 120.766 106.4 138.792C112.801 139.835 121.412 139.405 127.879 139.065C127.879 124.675 126.662 120.932 125.776 105.399Z" fill="#263238"/>
<path d="M123.077 129.972C123.077 129.972 123.044 129.815 123.028 129.508C123.011 129.161 122.995 128.713 122.961 128.175C122.92 126.958 122.87 125.294 122.812 123.257C122.721 119.051 122.605 113.346 122.473 107.036C122.423 103.873 122.382 100.851 122.332 98.1021C122.316 96.7358 122.299 95.4276 122.282 94.2021C122.274 92.985 122.241 91.8506 122.051 90.8487C121.719 88.8035 120.552 87.4539 119.558 86.9074C118.556 86.3444 117.861 86.452 117.869 86.394C117.869 86.394 117.911 86.3775 117.985 86.3775C118.068 86.3775 118.184 86.3609 118.333 86.3775C118.639 86.4023 119.103 86.4934 119.625 86.7666C120.146 87.0399 120.734 87.4953 121.239 88.1743C121.744 88.8449 122.125 89.7557 122.332 90.7908C122.547 91.8258 122.597 92.9767 122.622 94.1939C122.647 95.4193 122.68 96.7193 122.705 98.0938C122.754 100.843 122.812 103.857 122.87 107.028C122.953 113.337 123.028 119.051 123.086 123.249C123.086 125.286 123.102 126.95 123.102 128.167C123.102 128.713 123.094 129.152 123.086 129.508C123.077 129.815 123.069 129.972 123.053 129.972H123.077Z" fill="#455A64"/>
<path d="M117.26 123.368C117.26 123.368 117.202 122.995 117.186 122.316C117.161 121.637 117.145 120.66 117.145 119.451C117.145 117.033 117.194 113.697 117.285 110.004C117.385 106.36 117.476 103.065 117.55 100.564C117.592 99.4218 117.616 98.4613 117.641 97.7078C117.666 97.0289 117.699 96.6562 117.724 96.6562C117.749 96.6562 117.782 97.0289 117.799 97.7078C117.823 98.3868 117.84 99.3638 117.84 100.573C117.84 102.99 117.79 106.327 117.699 110.02C117.6 113.664 117.509 116.959 117.434 119.46C117.393 120.602 117.368 121.563 117.343 122.316C117.318 122.995 117.285 123.368 117.26 123.368Z" fill="#455A64"/>
<path d="M75.0885 127.829C74.2522 127.829 58.6443 128.947 55.0176 145.664C51.3909 162.39 50.3477 185.823 50.3477 185.823L67.2804 184.125L75.0802 127.829H75.0885Z" fill="#FF6533"/>
<path d="M82.7663 124.129L85.5236 119.053L109.494 118.407L111.117 122.729L125.268 127.83L124.158 190.543L134.633 248.421C134.633 248.421 134.525 256.751 106.588 259.425L104.377 229.17L90.4254 228.838L90.8063 258.39C90.8063 258.39 66.1814 257.993 58.3733 252.42C58.3733 252.42 56.0052 224.26 62.7286 203.99C68.6157 186.238 70.9093 181.65 70.9093 181.65L71.4144 128.443L82.7663 124.137V124.129Z" fill="#FF6533"/>
<g opacity="0.3">
<path d="M75.3456 128.551C70.5183 149.21 65.6827 169.86 60.8555 190.519L65.7655 195.727C70.8164 193.475 74.2857 188.068 74.2361 182.545C74.2112 179.68 73.3335 176.89 73.2093 174.025C72.9444 167.566 76.5131 161.646 78.1442 155.395C80.4544 146.535 78.7901 137.038 75.3456 128.559V128.551Z" fill="black"/>
</g>
<path d="M122.259 127.036C128.022 128.095 132.526 134.231 133.834 140.805C134.596 144.656 136.84 163.22 136.84 163.22L138.074 170.017C138.074 170.017 139.109 193.417 134.149 196.025C128.353 199.072 125.033 195.727 123.12 193.276C121.216 190.825 119.162 174.878 119.162 174.878L121.34 136.723L122.259 127.027V127.036Z" fill="#FF6533"/>
<path d="M125.01 136.416C125.01 136.416 125.002 136.648 124.944 137.087C124.878 137.567 124.787 138.196 124.671 138.999C124.406 140.697 124.042 143.09 123.586 146.021C123.106 148.993 122.543 152.521 121.922 156.421C121.599 158.383 121.268 160.436 120.92 162.564C120.564 164.692 120.142 166.887 119.96 169.155C119.844 170.497 119.835 171.822 119.943 173.064V173.039C121.731 181.07 123.412 188.175 124.679 193.259C125.317 195.768 125.838 197.796 126.211 199.237C126.385 199.908 126.526 200.446 126.633 200.851C126.724 201.224 126.766 201.415 126.757 201.423C126.741 201.423 126.675 201.241 126.559 200.876C126.435 200.479 126.269 199.949 126.062 199.287C125.648 197.896 125.077 195.867 124.406 193.333C123.073 188.266 121.334 181.17 119.529 173.138V173.122V173.105C119.421 171.83 119.43 170.48 119.545 169.122C119.728 166.82 120.158 164.626 120.514 162.498C120.87 160.37 121.21 158.317 121.541 156.363C122.203 152.463 122.8 148.944 123.296 145.979C123.81 143.057 124.224 140.68 124.522 138.983C124.671 138.188 124.787 137.559 124.878 137.087C124.961 136.656 125.019 136.424 125.027 136.433L125.01 136.416Z" fill="#263238"/>
<path d="M63.5352 131.77L67.9319 190.492C67.9319 190.492 76.1457 153.05 76.4852 143.47C76.8247 133.89 74.8209 127.142 74.8209 127.142C74.8209 127.142 66.8555 125.891 63.5352 131.77Z" fill="#455A64"/>
<path d="M61.0195 128.02C61.0195 128.02 61.6405 128.193 62.4851 128.823C62.9074 129.146 63.2883 129.709 63.5118 130.371C63.7437 131.025 63.8844 131.779 63.9507 132.557C64.0914 134.122 64.0832 135.521 64.0832 136.54C64.0832 137.558 64.0832 138.179 64.0169 138.187C63.959 138.187 63.8513 137.566 63.7768 136.548C63.694 135.53 63.6526 134.13 63.5201 132.598C63.3876 131.083 63.0399 129.692 62.2864 129.055C61.5495 128.409 60.9781 128.086 61.0278 128.02H61.0195Z" fill="#263238"/>
<path d="M91.4752 130.147C91.4752 130.147 91.2847 129.981 90.9784 129.634C90.672 129.286 90.2415 128.764 89.7032 128.102L89.9517 128.069C89.3555 129.799 88.453 132.308 87.4097 135.123L87.2606 135.521L87.0371 135.181C86.9129 134.999 86.7721 134.809 86.6479 134.602C85.8613 133.277 85.3811 131.919 84.9339 130.693C84.4951 129.468 84.139 128.35 83.8327 127.415C83.5263 126.479 83.2696 125.725 83.0792 125.212C82.897 124.699 82.7811 124.409 82.8142 124.401C82.8391 124.392 82.9964 124.649 83.2365 125.154C83.4766 125.651 83.7747 126.396 84.1225 127.315C84.4702 128.276 84.876 129.36 85.3148 130.561C85.7785 131.77 86.2753 133.119 87.0288 134.378C87.1447 134.577 87.2772 134.751 87.3931 134.925L87.0205 134.983C88.0721 132.176 89.0243 129.683 89.7032 127.978L89.7943 127.737L89.9434 127.944C90.9453 129.294 91.5249 130.122 91.4835 130.164L91.4752 130.147Z" fill="#263238"/>
<path d="M110.52 126.108C110.52 126.108 110.446 126.398 110.23 126.895C110.015 127.392 109.692 128.096 109.27 128.965C108.848 129.834 108.343 130.861 107.738 131.987C107.125 133.113 106.471 134.355 105.569 135.573L105.295 135.945L105.188 135.49C105.171 135.432 105.155 135.366 105.146 135.299C104.467 132.41 103.88 129.785 103.474 127.872L103.739 127.938C103.035 128.717 102.265 129.048 101.834 129.387C101.387 129.71 101.18 129.942 101.155 129.926C101.139 129.909 101.304 129.636 101.727 129.255C102.141 128.866 102.886 128.485 103.507 127.74L103.697 127.508L103.772 127.806C104.252 129.702 104.89 132.318 105.569 135.208C105.585 135.274 105.602 135.341 105.61 135.399L105.229 135.316C106.09 134.157 106.769 132.915 107.39 131.813C107.986 130.72 108.525 129.719 108.997 128.841C109.419 128.062 109.775 127.392 110.073 126.829C110.33 126.357 110.487 126.1 110.512 126.117L110.52 126.108Z" fill="#263238"/>
<path d="M91.8914 129.91C91.8914 129.91 89.5647 160.132 88.9602 164.024C88.3558 167.907 90.4258 228.84 90.4258 228.84L104.038 229.709C104.038 229.709 104.179 179.408 104.038 179.06C103.897 178.712 104.104 143.547 104.104 143.547L101.016 129.537L95.7499 135.772L91.8914 129.91Z" fill="white"/>
<path d="M107.083 158.642C107.116 158.708 106.603 158.816 106.363 159.47C106.247 159.776 106.214 160.215 106.429 160.563C106.628 160.919 107.108 161.101 107.596 161.01C108.085 160.919 108.466 160.579 108.524 160.173C108.598 159.768 108.408 159.379 108.192 159.13C107.729 158.609 107.215 158.683 107.224 158.609C107.224 158.584 107.331 158.526 107.555 158.534C107.778 158.534 108.11 158.642 108.408 158.915C108.698 159.188 108.987 159.652 108.913 160.231C108.855 160.828 108.292 161.324 107.671 161.432C107.05 161.556 106.346 161.291 106.081 160.753C105.808 160.231 105.915 159.701 106.081 159.345C106.263 158.981 106.536 158.766 106.743 158.683C106.95 158.6 107.075 158.617 107.083 158.633V158.642Z" fill="#263238"/>
<path d="M107.083 185.028C107.116 185.095 106.603 185.202 106.363 185.856C106.247 186.163 106.214 186.602 106.429 186.949C106.628 187.305 107.108 187.488 107.596 187.396C108.085 187.305 108.466 186.966 108.524 186.56C108.598 186.154 108.408 185.765 108.192 185.517C107.729 184.995 107.215 185.07 107.224 184.995C107.224 184.97 107.331 184.912 107.555 184.921C107.778 184.921 108.11 185.028 108.408 185.302C108.698 185.575 108.987 186.039 108.913 186.618C108.855 187.214 108.292 187.711 107.671 187.819C107.05 187.943 106.346 187.678 106.081 187.14C105.808 186.618 105.915 186.088 106.081 185.732C106.263 185.368 106.536 185.153 106.743 185.07C106.95 184.987 107.075 185.004 107.083 185.02V185.028Z" fill="#263238"/>
<path d="M108.28 216.939C108.313 217.005 107.8 217.112 107.56 217.767C107.444 218.073 107.411 218.512 107.626 218.859C107.825 219.216 108.305 219.398 108.794 219.307C109.282 219.216 109.663 218.876 109.721 218.47C109.795 218.065 109.605 217.675 109.39 217.427C108.926 216.905 108.413 216.98 108.421 216.905C108.421 216.881 108.529 216.823 108.752 216.831C108.976 216.831 109.307 216.939 109.605 217.212C109.895 217.485 110.185 217.949 110.11 218.528C110.052 219.124 109.489 219.621 108.868 219.729C108.247 219.853 107.543 219.588 107.278 219.05C107.005 218.528 107.113 217.998 107.278 217.642C107.46 217.278 107.734 217.063 107.941 216.98C108.148 216.897 108.272 216.914 108.28 216.93V216.939Z" fill="#263238"/>
<g opacity="0.3">
<path d="M125.936 158.407C125.638 155.997 125 153.629 124.834 151.211C124.644 148.313 125.141 145.374 124.578 142.525C122.607 145.813 122.16 149.787 122.152 153.621C122.135 157.454 122.499 161.313 121.961 165.105C121.589 167.697 120.744 170.827 120.429 173.427C120.115 176.027 120.86 177.476 121.622 181.384C124.246 173.965 126.904 166.223 125.944 158.415L125.936 158.407Z" fill="black"/>
</g>
<path d="M121.337 152.248C124.525 161.133 123.225 171.507 117.926 179.324L121.337 152.248Z" fill="#FF6533"/>
<path d="M117.936 179.316C117.861 179.266 118.772 177.958 119.857 175.656C120.412 174.505 120.958 173.089 121.463 171.491C121.943 169.876 122.357 168.08 122.606 166.15C122.838 164.221 122.879 162.375 122.821 160.694C122.73 159.013 122.548 157.506 122.3 156.264C121.819 153.763 121.265 152.273 121.347 152.248C121.372 152.24 121.521 152.604 121.77 153.283C121.894 153.623 122.043 154.037 122.167 154.525C122.3 155.014 122.482 155.577 122.598 156.206C122.887 157.456 123.103 158.98 123.219 160.677C123.301 162.375 123.277 164.254 123.036 166.208C122.78 168.162 122.349 169.984 121.844 171.615C121.314 173.23 120.726 174.654 120.13 175.797C119.857 176.385 119.551 176.873 119.302 177.32C119.054 177.767 118.814 178.132 118.607 178.43C118.201 179.026 117.969 179.341 117.944 179.324L117.936 179.316Z" fill="#263238"/>
<path d="M80.2153 192.208C80.1821 192.249 79.5529 191.777 78.6255 190.925C77.6898 190.072 76.4644 188.821 75.2224 187.339C73.9887 185.857 72.9785 184.425 72.3078 183.357C71.6371 182.288 71.2811 181.585 71.3308 181.56C71.3887 181.527 71.8276 182.164 72.5645 183.183C73.3014 184.201 74.3364 185.592 75.5619 187.066C76.7873 188.532 77.9714 189.807 78.8408 190.709C79.7102 191.612 80.2649 192.167 80.2235 192.216L80.2153 192.208Z" fill="#263238"/>
<path d="M74.7563 193.061C74.7067 193.086 74.3672 192.498 73.9118 191.496C73.4564 190.503 72.9016 189.087 72.4131 187.489C71.9246 185.891 71.6016 184.409 71.4195 183.332C71.2373 182.256 71.1876 181.577 71.2456 181.569C71.3698 181.544 71.85 184.202 72.8271 187.365C73.7876 190.536 74.8723 193.003 74.7481 193.061H74.7563Z" fill="#263238"/>
<path d="M101.384 177.294C101.342 177.352 100.879 177.029 100.067 176.706C99.2557 176.375 98.0468 176.11 96.7137 176.201C95.3806 176.3 94.2214 176.739 93.4679 177.178C92.7061 177.617 92.3004 177.998 92.2424 177.948C92.2093 177.923 92.5488 177.451 93.3023 176.921C94.0558 176.391 95.2647 175.878 96.6806 175.77C98.0964 175.671 99.3716 176.01 100.191 176.424C101.019 176.838 101.417 177.261 101.384 177.294Z" fill="#263238"/>
<path d="M55.4145 175.32C55.4145 175.32 49.337 181.936 49.8006 186.556C50.2643 191.177 52.4171 201.345 58.1221 201.038C63.8188 200.732 68.9773 191.566 69.7473 184.296C70.5174 177.026 69.7473 159.928 69.7473 159.928L61.6329 161.758L55.4228 175.32H55.4145Z" fill="#FFBE9D"/>
<path d="M43.3352 132.915C47.5415 138.289 57.9661 151.247 57.9661 151.247L67.778 148.755C68.4901 148.572 69.02 147.976 69.1111 147.239C69.169 146.767 69.0366 146.287 68.7385 145.906L54.9936 128.501C53.9337 127.168 52.1369 126.663 50.5472 127.259L44.2626 129.619C42.9212 130.124 42.4575 131.78 43.3352 132.906V132.915Z" fill="#263238"/>
<path d="M68.0661 146.562C68.0661 146.562 67.71 146.255 67.1222 145.659C66.5426 145.055 65.7063 144.169 64.7044 143.042C62.7006 140.799 60.0179 137.619 57.2606 133.934C56.5734 133.015 55.9109 132.113 55.2817 131.227C54.6607 130.349 54.0479 129.496 53.2282 129.041C52.4085 128.561 51.4646 128.759 50.6531 129.049C49.8251 129.331 49.0468 129.596 48.3264 129.844C46.9519 130.299 45.8175 130.672 44.9481 130.962C44.145 131.219 43.6979 131.343 43.6896 131.318C43.6813 131.293 44.1119 131.111 44.8902 130.805C45.7513 130.482 46.8691 130.059 48.227 129.554C48.9391 129.298 49.7175 129.016 50.5372 128.71C50.9595 128.561 51.4149 128.42 51.9117 128.378C52.4085 128.329 52.955 128.445 53.4186 128.693C54.3626 129.206 55.0001 130.117 55.6294 130.987C56.267 131.856 56.9294 132.759 57.6084 133.678C60.3573 137.346 62.9904 140.55 64.9362 142.844C65.8719 143.937 66.6585 144.848 67.2546 145.551C67.8011 146.189 68.0992 146.553 68.0744 146.57L68.0661 146.562Z" fill="#455A64"/>
<path d="M48.898 131.108C49.2872 130.918 49.8088 131.1 49.9993 131.481C50.1897 131.87 50.0076 132.392 49.6267 132.582C49.2375 132.773 48.7159 132.591 48.5254 132.21C48.335 131.821 48.5171 131.299 48.898 131.108Z" fill="white"/>
<path d="M57.3258 142.861L52.7883 143.615L51.1157 145.097C50.6521 145.511 50.4037 146.132 50.4865 146.745C50.5693 147.341 50.8259 148.111 51.5132 148.947C52.5979 150.255 53.4838 150.918 53.4838 150.918C53.4838 150.918 51.8858 153.501 54.3615 154.809C54.3615 154.809 54.1959 157.492 56.7876 157.765C56.7876 157.765 57.5411 160.307 59.4869 160.448L61.5072 162.444L60.8945 163.669L69.8949 163.942C69.8949 163.942 69.9612 159.007 69.5389 156.755C69.1332 154.594 68.8351 153.907 68.8351 153.907C69.2905 151.365 67.3944 150.313 67.1128 150.487C67.1128 150.487 71.4102 149.361 70.8554 146.405L66.732 147.465L59.1723 149.038L64.0161 145.792C64.2562 145.569 64.4798 145.32 64.6537 145.047C65.0677 144.393 65.6804 143.209 65.1587 142.522C64.9352 142.224 58.9735 144.716 58.9735 144.716L55.3137 148.136L54.1628 146.496C54.1628 146.496 57.9302 145.701 57.3341 142.861H57.3258Z" fill="#FFBE9D"/>
<path d="M67.6903 150.536C67.7069 150.661 66.0923 150.892 64.1796 151.455C62.2586 152.002 60.7765 152.673 60.7185 152.557C60.6605 152.457 62.093 151.604 64.0554 151.041C66.0177 150.47 67.682 150.429 67.6903 150.536Z" fill="#EB996E"/>
<path d="M65.6147 158.327C65.565 158.269 66.3185 157.822 67.1217 156.721L67.2707 156.514L67.3783 156.754C67.5108 157.043 67.7675 157.308 68.1153 157.457C68.4547 157.598 68.9101 157.623 69.1999 157.391C69.3407 157.275 69.3904 157.143 69.3573 156.919C69.3159 156.679 69.2745 156.431 69.2331 156.174C69.1337 155.669 69.0923 155.106 68.9267 154.651C68.7611 154.187 68.3802 153.93 67.9165 153.93C67.4529 153.914 66.9975 154.071 66.542 154.187C65.6644 154.402 64.8529 154.601 64.1077 154.783C62.7249 155.114 61.8638 155.28 61.8555 155.222C61.8472 155.164 62.6835 154.882 64.0415 154.485C64.7701 154.278 65.565 154.046 66.4261 153.806C66.8733 153.682 67.3618 153.491 67.9331 153.508C68.2146 153.508 68.521 153.582 68.7859 153.765C69.0509 153.947 69.2248 154.22 69.3324 154.501C69.5394 155.081 69.5643 155.603 69.6554 156.116C69.6968 156.373 69.7299 156.629 69.7713 156.878C69.8292 157.143 69.705 157.549 69.4566 157.706C68.9681 158.054 68.3885 157.971 67.9828 157.78C67.5605 157.582 67.2541 157.234 67.1134 156.87L67.3701 156.903C66.9229 157.457 66.4841 157.822 66.1612 158.045C65.8382 158.269 65.6395 158.352 65.623 158.327H65.6147Z" fill="#EB996E"/>
<path d="M57.6643 145.835C57.7554 145.918 56.7783 147.044 55.644 148.477C54.5096 149.909 53.6402 151.11 53.5326 151.043C53.4332 150.986 54.1536 149.652 55.3045 148.203C56.4554 146.746 57.5815 145.744 57.6643 145.827V145.835Z" fill="#EB996E"/>
<path d="M59.5271 148.939C59.5685 149.055 58.5832 149.353 57.9042 150.33C57.1921 151.282 57.217 152.309 57.0928 152.309C57.0431 152.309 56.952 152.061 56.9769 151.63C57.0017 151.208 57.1673 150.612 57.5565 150.073C57.9456 149.535 58.4507 149.188 58.8482 149.038C59.2456 148.881 59.5188 148.889 59.5271 148.939Z" fill="#EB996E"/>
<path d="M108.1 82.2283C107.404 80.4067 107.677 78.378 107.404 76.4405C106.8 72.1928 103.38 68.7814 99.4222 67.1171C95.7376 65.5688 91.2415 65.9 86.8034 67.3324C83.7563 68.3095 80.8914 70.0234 78.8628 72.4909C76.1635 75.7698 75.2113 80.3984 76.3954 84.4722L98.1388 81.334C100.176 83.0232 102.254 84.7371 104.721 85.6811C105.442 85.9543 106.228 86.1696 106.99 86.0454C107.752 85.9212 108.497 85.4078 108.679 84.6543C108.878 83.8346 108.39 83.0232 108.091 82.2283H108.1Z" fill="#263238"/>
<path d="M94.5877 66.0298C99.3487 65.2267 103.53 67.0648 107.538 69.7559C111.545 72.4469 114.568 76.4958 116.306 81.0002C118.136 85.7447 118.6 92.6006 117.176 97.4858C115.76 102.371 112.307 105.931 107.852 107.505C101.303 109.815 93.7431 109.533 88.2121 105.344C82.681 101.154 79.518 94.2235 79.2613 87.2848C79.0874 82.5072 80.2301 77.6137 82.9128 73.6475C85.5873 69.6813 89.8515 66.7254 94.5877 66.0298Z" fill="#263238"/>
<path d="M87.0314 117.797L87.2052 121.672L95.742 136.784L108.195 120.878L108.617 81.1747C108.584 79.3365 107.152 77.8295 105.314 77.6971L86.3358 73.6481C80.2914 73.2341 76.5653 80.8021 76.4163 86.8548C76.2424 93.5865 76.3004 101.8 77.2857 106.785C79.2646 116.796 87.0314 117.789 87.0314 117.789" fill="#FFBE9D"/>
<path d="M79.1191 95.2202C79.1191 95.9074 79.6987 96.4622 80.4108 96.4788C81.1229 96.487 81.7025 95.9488 81.7025 95.2616C81.7025 94.5826 81.1229 94.0196 80.4108 94.003C79.6987 93.9947 79.1191 94.5329 79.1191 95.2202Z" fill="#263238"/>
<path d="M78.3398 90.7485C78.5054 90.9141 79.4576 90.1524 80.8487 90.1027C82.2397 90.0365 83.283 90.7071 83.4238 90.5333C83.4983 90.4587 83.3244 90.1607 82.8608 89.8543C82.4136 89.5479 81.6519 89.2664 80.7907 89.2995C79.9213 89.3409 79.2092 89.6804 78.8035 90.0282C78.3895 90.3759 78.257 90.6823 78.3398 90.7568V90.7485Z" fill="#263238"/>
<path d="M91.7344 94.979C91.7344 95.6579 92.314 96.221 93.0261 96.2376C93.7381 96.2458 94.3178 95.7076 94.3178 95.0204C94.3178 94.3414 93.7381 93.7784 93.0261 93.7618C92.314 93.7535 91.7344 94.2917 91.7344 94.979Z" fill="#263238"/>
<path d="M91.5371 90.4331C91.7027 90.5987 92.6549 89.837 94.046 89.7873C95.437 89.721 96.4803 90.3917 96.6211 90.2178C96.6956 90.1433 96.5217 89.8452 96.058 89.5389C95.6109 89.2325 94.8491 88.951 93.988 88.9841C93.1186 89.0255 92.4065 89.365 92.0008 89.7127C91.5868 90.0605 91.4543 90.3669 91.5371 90.4414V90.4331Z" fill="#263238"/>
<path d="M87.3579 100.99C87.3579 100.907 86.4885 100.791 85.0892 100.667C84.7331 100.642 84.3936 100.584 84.3274 100.344C84.2363 100.087 84.3688 99.7062 84.5261 99.2839C84.8242 98.4145 85.1388 97.4954 85.4783 96.5432C86.7948 92.6433 87.7305 89.4389 87.5732 89.3893C87.4158 89.3396 86.2235 92.4612 84.907 96.3611C84.5923 97.3216 84.2943 98.2406 84.0045 99.1183C83.8885 99.5241 83.6733 99.996 83.872 100.518C83.9796 100.783 84.2446 100.965 84.4764 101.014C84.7083 101.072 84.907 101.072 85.0809 101.072C86.4885 101.097 87.3662 101.072 87.3662 100.99H87.3579Z" fill="#263238"/>
<path d="M87.0195 117.798C87.0195 117.798 93.8092 117.657 100.375 113.368C100.375 113.368 97.2454 120.464 87.1355 119.901L87.0278 117.798H87.0195Z" fill="#EB996E"/>
<path d="M88.4248 103.978C89.0127 103.365 89.5758 103.216 90.4535 103.282C91.0579 103.323 91.356 103.63 91.7369 104.102C92.1177 104.582 92.1757 105.543 91.8611 106.023C91.505 106.561 90.7267 106.718 90.056 106.553C89.3853 106.387 88.9134 106.188 88.3586 105.774C88.2013 105.658 88.0936 105.402 88.044 105.22C87.8866 104.657 88.3172 104.127 88.4248 103.986" fill="#EB996E"/>
<path d="M91.6299 87.171C91.779 87.5436 93.1617 87.3117 94.8012 87.4442C96.4406 87.5436 97.7737 87.9741 97.9807 87.6264C98.0718 87.4608 97.8317 87.113 97.2852 86.7652C96.747 86.4175 95.8941 86.1028 94.9088 86.0283C93.9235 85.9621 93.0375 86.1442 92.4496 86.4092C91.8618 86.6742 91.572 86.9805 91.6382 87.1544L91.6299 87.171Z" fill="#263238"/>
<path d="M78.5308 84.6596C78.7874 84.966 79.7314 84.6016 80.8823 84.5437C82.0332 84.4443 83.0185 84.6762 83.2256 84.3367C83.3166 84.1711 83.151 83.8647 82.7122 83.5832C82.2816 83.3017 81.5695 83.0864 80.7829 83.1361C79.9963 83.194 79.3174 83.5004 78.9282 83.8399C78.5308 84.1794 78.4148 84.5106 78.5225 84.6596H78.5308Z" fill="#263238"/>
<path d="M111.574 79.3038C109.611 73.5243 101.033 65.6334 94.9471 66.1716L85.334 72.183C85.9881 75.4867 88.5963 78.3268 91.8338 79.2459C93.5644 79.7344 95.6344 79.842 96.686 81.2993C97.7624 82.7897 97.191 85.0005 98.1929 86.5406C99.584 88.6769 103.26 88.503 104.312 90.8214C104.776 91.8316 104.56 93.057 105.041 94.0589C105.678 95.392 109.123 97.0397 110.53 96.5678C111.93 96.0958 111.896 93.6863 112.327 92.4194C113.072 90.2501 112.733 89.1405 112.451 87.9482C111.781 85.1164 112.509 82.0611 111.574 79.3038Z" fill="#263238"/>
<path d="M106.391 97.8349C106.366 97.0814 107.161 95.2846 107.898 95.1438C109.86 94.763 113.437 94.7878 113.653 99.8055C113.959 106.67 107.004 105.56 106.979 105.361C106.962 105.204 106.474 100.427 106.383 97.8349H106.391Z" fill="#FFBE9D"/>
<path d="M108.965 102.671C108.965 102.671 109.09 102.746 109.297 102.837C109.495 102.92 109.843 102.97 110.191 102.812C110.903 102.514 111.466 101.338 111.441 100.096C111.433 99.4671 111.275 98.8792 111.027 98.399C110.795 97.9021 110.456 97.5709 110.083 97.5213C109.719 97.455 109.47 97.6869 109.396 97.8773C109.313 98.076 109.363 98.2085 109.33 98.2251C109.313 98.2416 109.181 98.1174 109.222 97.8276C109.247 97.6869 109.321 97.5213 109.47 97.3888C109.628 97.248 109.868 97.1652 110.125 97.1818C110.654 97.1983 111.151 97.662 111.425 98.192C111.723 98.7219 111.913 99.3843 111.921 100.088C111.938 101.471 111.284 102.796 110.307 103.127C109.826 103.276 109.421 103.143 109.205 102.994C108.982 102.837 108.941 102.68 108.965 102.671Z" fill="#EB996E"/>
<path d="M117.806 88.4428C117.856 88.4428 118.038 87.6727 118.063 86.381C118.088 85.0976 117.906 83.3009 117.277 81.4296C116.647 79.5583 115.712 78.0099 114.917 76.9997C114.122 75.9896 113.501 75.4762 113.468 75.5093C113.344 75.6004 115.637 77.8857 116.846 81.5703C118.105 85.2384 117.649 88.4428 117.798 88.4428H117.806Z" fill="#FF6533"/>
<path d="M87.3427 70.1116C86.7051 72.902 82.4575 76.4873 80.5862 78.6566C77.0257 82.8049 76.3551 83.4177 76.3799 95.9206C74.7073 92.7162 73.3825 87.1106 73.515 83.4922C73.6475 79.8738 74.9889 76.2554 77.506 73.6555C80.0231 71.0555 83.7574 69.5817 87.3427 70.1033" fill="#263238"/>
<path d="M115.084 79.22C115.084 79.22 114.678 79.3525 113.916 79.5098C113.535 79.5926 113.072 79.6837 112.525 79.75C111.979 79.8162 111.358 79.9239 110.67 79.9653C109.288 80.0977 107.632 80.1143 105.802 80.0067C103.972 79.8742 101.968 79.5926 99.9063 79.1041C97.8528 78.5908 95.9401 77.9118 94.2592 77.1831C92.5867 76.4297 91.1294 75.6513 89.9619 74.8979C89.3657 74.5501 88.8606 74.1692 88.4135 73.8546C87.9581 73.5482 87.5855 73.2501 87.2957 73.0017C86.6996 72.5132 86.3766 72.2317 86.3932 72.2068C86.4097 72.182 86.7658 72.4221 87.3951 72.8775C87.7014 73.1094 88.0906 73.3826 88.5543 73.6724C89.018 73.9705 89.5231 74.3265 90.1275 74.6577C91.3033 75.3698 92.7606 76.1233 94.4248 76.8437C96.0974 77.5392 97.9853 78.2016 100.022 78.7067C102.059 79.1952 104.038 79.4767 105.843 79.634C107.656 79.7582 109.296 79.7665 110.662 79.6755C111.349 79.6589 111.97 79.5761 112.509 79.5264C113.055 79.485 113.519 79.4188 113.9 79.3525C114.661 79.2449 115.084 79.1952 115.092 79.22H115.084Z" fill="#455A64"/>
<path d="M115.792 84.1371C115.792 84.1371 115.51 84.2365 114.997 84.3276C114.484 84.4352 113.722 84.5346 112.786 84.6091C110.907 84.7664 108.273 84.7167 105.442 84.162C102.61 83.5989 100.159 82.6384 98.4782 81.7856C97.6336 81.3633 96.9712 80.9824 96.5324 80.6843C96.0935 80.3945 95.8534 80.2289 95.8699 80.2041C95.9113 80.1461 96.905 80.7423 98.6024 81.5206C100.3 82.2989 102.726 83.2015 105.525 83.7562C108.315 84.3027 110.907 84.3938 112.77 84.311C114.633 84.2365 115.784 84.0543 115.8 84.1288L115.792 84.1371Z" fill="#455A64"/>
<path d="M117.527 84.3115C117.527 84.3115 117.651 84.6676 117.759 85.3465C117.874 86.0172 117.974 87.0025 118.04 88.2197C118.106 89.4369 118.123 90.8859 118.04 92.5005C117.941 94.1068 117.792 95.8871 117.336 97.7087C116.376 101.385 114.033 104.117 112.004 105.475C110.994 106.171 110.083 106.585 109.454 106.85C108.824 107.107 108.46 107.214 108.452 107.189C108.435 107.156 108.783 107.007 109.387 106.701C109.992 106.403 110.861 105.947 111.83 105.235C112.807 104.531 113.842 103.53 114.753 102.238C115.631 100.921 116.525 99.3978 116.931 97.6093C117.378 95.8374 117.543 94.0737 117.659 92.484C117.767 90.8859 117.775 89.4452 117.75 88.2363C117.725 87.0274 117.667 86.0503 117.601 85.3714C117.543 84.7007 117.502 84.3281 117.535 84.3198L117.527 84.3115Z" fill="#455A64"/>
<path d="M90.1538 106.555C90.1621 106.489 90.6423 106.655 91.2219 106.29C91.5035 106.117 91.7684 105.802 91.8347 105.38C91.9092 104.966 91.7933 104.461 91.4703 104.088C91.1474 103.715 90.6672 103.533 90.2283 103.5C89.7895 103.467 89.392 103.591 89.0857 103.748C88.4729 104.08 88.2163 104.469 88.1583 104.427C88.1169 104.411 88.2825 103.931 88.9284 103.483C89.2513 103.268 89.7067 103.086 90.2449 103.103C90.7665 103.119 91.3627 103.326 91.785 103.806C92.199 104.287 92.3315 104.924 92.2155 105.454C92.1079 106.001 91.7187 106.39 91.3627 106.555C90.6092 106.911 90.1041 106.58 90.1455 106.555H90.1538Z" fill="#263238"/>
<path d="M132.493 163.087L136.186 155.213C136.798 152.753 139.299 151.925 142.363 151.71L145.6 150.385C145.6 150.385 147.96 146.982 150.146 147.032C150.494 147.032 150.808 147.272 150.908 147.612C150.974 147.843 150.941 148.084 150.808 148.291L148.15 152.381L146.039 153.432C146.039 153.432 148.018 153.913 148.804 153.167C149.591 152.422 152.257 150.327 152.257 150.327C152.257 150.327 154.278 146.676 156.919 146.949C157.258 146.982 157.457 147.355 157.3 147.653L155.279 151.553C155.279 151.553 158.964 146.014 162.475 148.084L158.583 152.315C158.583 152.315 164.23 149.11 166.482 151.793L152.183 157.697L143.944 159.311L141.063 167.119L138.529 165.679L132.484 163.095L132.493 163.087Z" fill="#FFBE9D"/>
<path d="M141.054 173.321C141.054 173.321 141.493 187.314 138.91 191.173C136.326 195.031 131.532 200.256 125.587 196.075L121.869 181.99C121.869 181.99 127.922 175.35 129.023 172.634C131.772 165.852 136.194 155.221 136.194 155.221L144.085 158.731L141.071 173.321H141.054Z" fill="#FFBE9D"/>
<path d="M129.907 171.357C129.957 171.39 129.592 172.053 129.013 173.121C128.433 174.189 127.655 175.688 126.885 177.369C126.115 179.058 125.494 180.623 125.063 181.757C124.633 182.9 124.368 183.603 124.31 183.587C124.26 183.57 124.417 182.825 124.773 181.658C125.138 180.49 125.717 178.892 126.496 177.186C127.274 175.481 128.102 173.999 128.756 172.964C129.41 171.92 129.866 171.316 129.915 171.349L129.907 171.357Z" fill="#EB996E"/>
<path d="M148.164 152.363C148.213 152.471 147.352 152.984 146.235 153.497C145.117 154.019 144.173 154.35 144.123 154.243C144.073 154.135 144.935 153.622 146.052 153.108C147.162 152.587 148.106 152.255 148.164 152.363Z" fill="#EB996E"/>
<path d="M149.35 156.064C149.325 156.014 149.714 155.758 150.393 155.476C150.791 155.311 151.188 155.153 151.586 154.988C151.818 154.888 152.041 154.797 152.273 154.698C152.538 154.59 152.662 154.491 152.853 154.276C153.573 153.464 154.161 152.628 154.633 152.065C155.088 151.502 155.436 151.162 155.502 151.237C155.502 151.27 155.461 151.328 155.345 151.518C155.188 151.767 155.03 152.007 154.881 152.247C154.467 152.86 153.929 153.704 153.167 154.574C153.068 154.681 152.968 154.781 152.836 154.888C152.679 155.004 152.571 155.029 152.439 155.095C152.19 155.203 151.95 155.294 151.718 155.369C151.254 155.534 150.84 155.658 150.493 155.774C149.797 155.99 149.367 156.13 149.342 156.081L149.35 156.064Z" fill="#EB996E"/>
</svg>
