<svg width="22" height="22" viewBox="0 0 22 22" fill="none" xmlns="http://www.w3.org/2000/svg">
<g clip-path="url(#clip0_98_989)">
<path d="M21.4866 11.206C21.4866 10.3047 21.4135 9.64693 21.2552 8.96484H10.9629V13.033H17.0042C16.8825 14.044 16.2248 15.5665 14.7631 16.5896L14.7426 16.7258L17.9968 19.2468L18.2223 19.2693C20.2929 17.357 21.4866 14.5434 21.4866 11.206Z" fill="#4285F4"/>
<path d="M10.9629 21.925C13.9226 21.925 16.4074 20.9505 18.2223 19.2697L14.7631 16.59C13.8374 17.2355 12.595 17.6862 10.9629 17.6862C8.06398 17.6862 5.60359 15.774 4.72653 13.1309L4.59798 13.1418L1.21417 15.7605L1.16992 15.8835C2.97258 19.4645 6.67538 21.925 10.9629 21.925Z" fill="#34A853"/>
<path d="M4.72589 13.1306C4.49447 12.4485 4.36053 11.7176 4.36053 10.9625C4.36053 10.2072 4.49447 9.47646 4.71371 8.79437L4.70758 8.64911L1.28137 5.98828L1.16927 6.0416C0.426313 7.52761 0 9.19633 0 10.9625C0 12.7286 0.426313 14.3972 1.16927 15.8832L4.72589 13.1306Z" fill="#FBBC05"/>
<path d="M10.9629 4.23869C13.0213 4.23869 14.4098 5.12785 15.2016 5.87089L18.2953 2.85018C16.3953 1.08405 13.9226 0 10.9629 0C6.67538 0 2.97258 2.46039 1.16992 6.04135L4.71436 8.79412C5.60359 6.15102 8.06398 4.23869 10.9629 4.23869Z" fill="#EB4335"/>
</g>
<defs>
<clipPath id="clip0_98_989">
<rect width="22" height="22" fill="white"/>
</clipPath>
</defs>
</svg>
