<svg width="163" height="142" viewBox="0 0 163 142" fill="none" xmlns="http://www.w3.org/2000/svg">
<path d="M74.6443 11C72.7403 19.4979 67.6444 22.9978 59.2445 22.9978H28.739C21.7391 22.9978 13.7873 24.9858 11.4073 32.8956C11.0567 31.5656 10.8733 30.1971 10.8613 28.8217V27.5757C10.8613 18.3219 19.1632 11 26.5271 11H74.6443ZM74.8823 49.9754C74.8402 54.1935 73.1846 58.2355 70.2556 61.2712C67.3266 64.307 63.3465 66.1061 59.1325 66.2991H26.5271C19.8772 66.2991 12.4433 61.3012 11.1273 54.3013H54.3026C54.8926 54.3244 55.4808 54.2229 56.0289 54.0033C56.577 53.7838 57.0727 53.4511 57.4835 53.027C57.8944 52.603 58.2112 52.097 58.4133 51.5423C58.6155 50.9875 58.6983 50.3963 58.6565 49.8074V49.6394C58.6565 48.2394 58.5025 45.3134 54.3026 45.3134H26.5271C24.392 45.2981 22.2856 44.821 20.3523 43.9148C18.4191 43.0086 16.7048 41.6948 15.3273 40.0635C14.6602 38.8826 14.2948 37.5555 14.2633 36.1996C14.2633 29.4657 21.6971 26.7077 27.1571 26.7077C27.0911 27.0111 27.0629 27.3214 27.0731 27.6317V28.8777C27.0731 30.0397 27.1571 33.3716 31.357 33.3716H59.1325C68.1484 33.3156 74.8823 41.3095 74.8823 49.9754Z" fill="#5848B9"/>
<path d="M148.535 54.3019V66.2157H84.5977V48.646C84.6895 44.8349 86.2853 41.2149 89.0368 38.5762C91.7882 35.9376 95.4718 34.4946 99.2834 34.5622H124.707C129.481 34.5622 129.481 31.1463 129.481 29.9843V27.5763C129.481 27.3243 129.397 26.9884 129.397 26.5684H131.567C137.811 26.5684 143.397 28.2343 145.483 31.0763C147.037 33.1483 147.219 35.8922 146.169 39.3081C143.649 43.6481 137.979 46.476 132.519 46.476H106.997C102.237 46.476 102.321 49.892 102.321 51.054V54.3019H148.535Z" fill="#FC683F"/>
<path d="M148.088 25.1541V28.4861C144.182 23.7402 136.721 22.9982 132.465 22.9982H85.6074C86.1291 19.553 87.9058 16.4221 90.596 14.2075C93.2861 11.9928 96.6999 10.8506 100.181 11.0004H133.417C137.238 10.9366 140.928 12.3909 143.678 15.0442C146.429 17.6975 148.015 21.3332 148.088 25.1541Z" fill="#FC683F"/>
<path d="M107.167 122.809C104.703 122.809 102.687 120.975 101.245 118.805L85.3555 80.5859H100.167L114.811 115.809L114.307 117.055C112.725 120.555 109.981 122.809 107.167 122.809ZM132.941 80.5859H147.738L124.779 135.885H108.399L104.199 125.805C105.175 126.157 106.2 126.351 107.237 126.379C111.199 126.379 115.105 123.383 117.191 118.637L132.941 80.5859Z" fill="#5848B9"/>
<path d="M31.4824 130.187C31.4766 132.217 30.7356 134.176 29.3965 135.703V135.801H61.036C64.4721 135.901 67.8251 134.734 70.4559 132.521C73.0868 130.308 74.8116 127.205 75.3017 123.803H31.4824V130.187Z" fill="#FC683F"/>
<path d="M31.1895 102.818V114.816H31.3714H60.477V102.818H31.3714H31.1895Z" fill="#FC683F"/>
<path d="M29.5661 92.4996C31.0909 89.9672 31.5652 86.939 30.8877 84.0617C30.2102 81.1843 28.4346 78.6859 25.9401 77.0999C25.8306 77.0349 25.7056 77.0004 25.5782 77C25.4508 76.9996 25.3257 77.0333 25.2157 77.0976C25.1057 77.1618 25.0149 77.2543 24.9528 77.3655C24.8906 77.4767 24.8593 77.6025 24.8621 77.7298V85.7517C24.8503 86.0302 24.7732 86.302 24.6371 86.5452C24.5009 86.7884 24.3094 86.9961 24.0782 87.1517L21.0682 89.2657C20.7796 89.4565 20.4412 89.5583 20.0952 89.5583C19.7492 89.5583 19.4108 89.4565 19.1222 89.2657L16.0003 87.2077C15.7557 87.0458 15.5558 86.8251 15.4188 86.5658C15.2818 86.3065 15.2122 86.0169 15.2163 85.7237V77.7578C15.2168 77.6271 15.182 77.4986 15.1156 77.3859C15.0492 77.2732 14.9537 77.1804 14.8391 77.1174C14.7246 77.0544 14.5951 77.0234 14.4644 77.0277C14.3337 77.032 14.2065 77.0714 14.0963 77.1419C12.4857 78.1893 11.168 79.6293 10.2672 81.3264C9.36644 83.0234 8.91219 84.9217 8.94719 86.8427C8.9822 88.7637 9.50531 90.6442 10.4673 92.3073C11.4293 93.9704 12.7986 95.3614 14.4463 96.3495V130.187C14.4463 131.672 15.0363 133.097 16.0865 134.147C17.1367 135.197 18.561 135.787 20.0462 135.787C21.529 135.781 22.9488 135.187 23.9942 134.135C24.8284 133.309 25.3818 132.241 25.5761 131.083C25.6278 130.787 25.6512 130.487 25.6461 130.187V96.3775C27.2592 95.4366 28.6078 94.1025 29.5661 92.4996Z" fill="#FC683F"/>
<g clip-path="url(#clip0_98_1013)">
<path d="M35.7256 92.6114V92.6814H60.9252C64.3416 92.6717 67.6469 91.4667 70.2679 89.2753C72.8889 87.0839 74.6603 84.0443 75.275 80.6836H35.5996C35.5996 80.6836 35.5996 80.6836 35.5996 80.7536C36.5346 82.6417 37.0141 84.7226 36.9996 86.8295C37.0081 88.8273 36.573 90.8022 35.7256 92.6114Z" fill="#FC683F"/>
</g>
<defs>
<clipPath id="clip0_98_1013">
<rect width="39.6753" height="11.9978" fill="white" transform="translate(35.5996 80.6836)"/>
</clipPath>
</defs>
</svg>
