<svg width="97" height="97" viewBox="0 0 97 97" fill="none" xmlns="http://www.w3.org/2000/svg">
<circle cx="48.5" cy="48.5" r="48.5" fill="url(#paint0_linear_98_8936)"/>
<path d="M48.4991 18.9785C57.2238 18.9785 64.3143 26.3238 64.3143 35.4088C64.3143 47.7246 48.4991 65.9221 48.4991 65.9221C48.4991 65.9221 32.6838 47.7246 32.6838 35.4088C32.6838 26.3238 39.7743 18.9785 48.4991 18.9785ZM48.4991 30.0241C47.1009 30.0241 45.76 30.6059 44.7714 31.6416C43.7827 32.6774 43.2273 34.0821 43.2273 35.5468C43.2273 37.0116 43.7827 38.4163 44.7714 39.452C45.76 40.4877 47.1009 41.0696 48.4991 41.0696C49.8972 41.0696 51.2381 40.4877 52.2267 39.452C53.2154 38.4163 53.7708 37.0116 53.7708 35.5468C53.7708 34.0821 53.2154 32.6774 52.2267 31.6416C51.2381 30.6059 49.8972 30.0241 48.4991 30.0241ZM69.586 65.9221C69.586 72.0248 60.1496 76.9676 48.4991 76.9676C36.8485 76.9676 27.4121 72.0248 27.4121 65.9221C27.4121 62.3599 30.6279 59.1843 35.6097 57.1685L37.2966 59.6814C34.4499 60.924 32.6838 62.6361 32.6838 64.5414C32.6838 68.3521 39.7743 71.4449 48.4991 71.4449C57.2238 71.4449 64.3143 68.3521 64.3143 64.5414C64.3143 62.6361 62.5482 60.924 59.7015 59.6814L61.3885 57.1685C66.3703 59.1843 69.586 62.3599 69.586 65.9221Z" fill="#F8F8F8"/>
<defs>
<linearGradient id="paint0_linear_98_8936" x1="151.826" y1="111.234" x2="2.71757" y2="11.7397" gradientUnits="userSpaceOnUse">
<stop stop-color="#FC683F"/>
<stop offset="0.0001" stop-color="#DF4920"/>
<stop offset="1" stop-color="#FD8361"/>
</linearGradient>
</defs>
</svg>
