<svg width="368" height="326" viewBox="0 0 368 326" fill="none" xmlns="http://www.w3.org/2000/svg">
<g clip-path="url(#clip0_98_6610)">
<path d="M368 -0.000976562H0V325.087H368V-0.000976562Z" fill="white"/>
<path d="M76.2517 301.508C76.2517 301.508 35.9928 262.058 31.6854 202.64C26.3279 128.731 53.6825 89.5729 105.063 81.6684C120.831 79.2416 141.703 62.823 163.432 42.6448C207.287 1.91769 331.833 45.1593 303.134 178.87C289.633 241.771 344.845 238.252 319.632 301.644L76.2517 301.509V301.508Z" fill="#EBF3FA"/>
<path d="M226.65 274.011C226.65 274.011 221.713 261.176 231.846 257.74C231.846 257.74 238.87 256.295 243.481 258.254C243.481 258.254 232.825 267.078 234.589 268.96C236.352 270.843 245.754 258.271 245.754 258.271C245.754 258.271 259.36 261.67 262.868 265.207C262.868 265.207 248.354 270.414 250.528 271.802C252.701 273.191 268.055 268.476 268.055 268.476C268.055 268.476 279.556 274.909 276.25 282.144C272.944 289.379 267.907 290.187 266.124 289.33C264.341 288.474 254.967 280.48 254.191 281.915C253.416 283.35 258.179 290.634 262.668 292.49C262.668 292.49 250.656 298.942 245.895 294.156C241.136 289.371 242.192 284.843 239.198 281.94C236.203 279.036 233.15 277.956 234.034 280.145C234.918 282.334 240.814 286.253 241.573 290.597C242.332 294.94 243.301 298.031 237.683 295.029C232.066 292.027 223.963 284.257 225.307 279.134L226.651 274.011H226.65Z" fill="#599DAD"/>
<path d="M270.161 280.204C270.161 280.204 237.368 267.108 226.647 274.008C226.647 274.008 223.295 278.294 216.723 280.947L215.19 282.794C215.19 282.794 223.111 278.766 225.302 279.131C225.302 279.131 226.265 266.206 270.16 280.206L270.161 280.204Z" fill="#599DAD"/>
<path d="M216.726 280.946C216.726 280.946 207.715 283.688 203.867 292.942L205.122 293.517C205.122 293.517 210.866 284.576 216.341 282.227C221.815 279.878 216.726 280.945 216.726 280.945V280.946Z" fill="#599DAD"/>
<path d="M149.353 225.761C149.353 225.761 155.744 220.059 151.111 215.267C151.111 215.267 147.633 212.465 144.52 212.236C144.52 212.236 147.908 220.16 146.394 220.699C144.881 221.239 143.256 211.597 143.256 211.597C143.256 211.597 134.751 209.603 131.799 210.562C131.799 210.562 138.355 217.58 136.755 217.731C135.156 217.881 127.996 210.895 127.996 210.895C127.996 210.895 119.792 211.181 119.561 216.13C119.331 221.08 121.891 222.962 123.123 222.996C124.355 223.029 131.824 221.273 131.845 222.289C131.866 223.305 127.152 225.982 124.137 225.732C124.137 225.732 128.952 232.728 132.952 231.434C136.952 230.14 137.656 227.33 140.143 226.575C142.63 225.821 144.629 226.093 143.514 227.053C142.401 228.014 138.018 228.505 136.36 230.694C134.702 232.884 133.285 234.321 137.251 234.257C141.217 234.195 147.921 232.201 148.636 228.981L149.351 225.761H149.353Z" fill="#599DAD"/>
<path d="M123.489 216.792C123.489 216.792 145.384 218.882 149.357 225.76C149.357 225.76 149.992 229.088 152.876 232.43L153.199 233.89C153.199 233.89 149.96 229.402 148.641 228.98C148.641 228.98 151.791 221.546 123.489 216.792Z" fill="#599DAD"/>
<path d="M152.874 232.43C152.874 232.43 157.084 236.517 156.578 242.739L155.72 242.7C155.72 242.7 155.086 236.111 152.723 233.25C150.359 230.389 152.874 232.43 152.874 232.43Z" fill="#599DAD"/>
<path d="M217.599 242.432C217.599 242.432 195.813 227.499 208.103 211.027C208.103 211.027 217.643 201.092 227.072 199.171C227.072 199.171 219.819 224.739 224.66 225.794C229.5 226.849 230.689 196.721 230.689 196.721C230.689 196.721 255.917 187.284 265.32 189.061C265.32 189.061 248.024 213.101 252.975 212.934C257.926 212.764 277.087 188.584 277.087 188.584C277.087 188.584 302.289 186.241 304.937 201.289C307.585 216.339 300.493 223.101 296.737 223.686C292.982 224.271 269.446 221.83 269.781 224.946C270.115 228.061 285.585 234.399 294.708 232.449C294.708 232.449 282.726 255.736 269.984 253.348C257.242 250.959 253.984 242.643 246.083 241.31C238.182 239.978 232.174 241.593 235.958 244.095C239.742 246.598 253.338 246.377 259.269 252.424C265.2 258.469 270.097 262.306 257.941 263.673C245.784 265.04 224.502 261.568 221.05 252.001L217.597 242.432H217.599Z" fill="#86D1CD"/>
<path d="M293.2 204.856C293.2 204.856 227.051 219.843 217.599 242.433C217.599 242.433 216.962 252.866 209.454 264.218L209.038 268.808C209.038 268.808 217.185 253.812 221.05 252.002C221.05 252.002 208.497 230.503 293.199 204.856H293.2Z" fill="#6BB7BF"/>
<path d="M209.455 264.218C209.455 264.218 198.181 278.369 202.171 297.201L204.783 296.748C204.783 296.748 204.136 276.345 210.242 266.668C216.347 256.99 209.457 264.22 209.457 264.22L209.455 264.218Z" fill="#6BB7BF"/>
<path d="M134.077 276.762C134.077 276.762 150.668 263.818 140.086 251.324C140.086 251.324 132.013 243.892 124.42 242.827C124.42 242.827 131.442 262.802 127.645 263.88C123.848 264.958 121.425 241.057 121.425 241.057C121.425 241.057 100.9 234.791 93.5094 236.665C93.5094 236.665 108.444 254.934 104.497 255.043C100.552 255.151 84.1289 236.865 84.1289 236.865C84.1289 236.865 63.9718 236.238 62.6065 248.336C61.2395 260.432 67.2114 265.462 70.2265 265.743C73.2417 266.024 91.8368 262.928 91.723 265.421C91.6092 267.914 79.62 273.714 72.2697 272.612C72.2697 272.612 82.9424 290.542 92.9567 288.018C102.971 285.494 105.154 278.72 111.371 277.272C117.589 275.824 122.445 276.814 119.56 278.99C116.674 281.167 105.853 281.659 101.433 286.757C97.0138 291.856 93.3078 295.147 103.041 295.636C112.774 296.127 129.528 292.322 131.803 284.543L134.079 276.765L134.077 276.762Z" fill="#599DAD"/>
<path d="M134.469 276.27C134.469 276.27 146.843 283.665 149.145 298.827L147.069 299.22C147.069 299.22 141.834 283.824 134.568 278.317C127.302 272.81 134.467 276.27 134.467 276.27H134.469Z" fill="#599DAD"/>
<path d="M138.571 266.748C138.571 266.748 147.467 259.575 141.612 252.883C141.612 252.883 137.164 248.919 133.032 248.407C133.032 248.407 137.019 259.192 134.966 259.809C132.913 260.427 131.39 247.472 131.39 247.472C131.39 247.472 120.191 244.249 116.195 245.332C116.195 245.332 124.462 255.12 122.322 255.214C120.179 255.309 111.105 245.522 111.105 245.522C111.105 245.522 100.156 245.356 99.5184 251.937C98.8812 258.517 102.168 261.196 103.808 261.323C105.448 261.45 115.518 259.606 115.477 260.96C115.438 262.316 108.978 265.568 104.977 265.034C104.977 265.034 110.927 274.676 116.343 273.218C121.759 271.76 122.884 268.063 126.247 267.223C129.61 266.383 132.256 266.879 130.707 268.085C129.16 269.291 123.287 269.653 120.932 272.459C118.577 275.266 116.594 277.085 121.883 277.267C127.172 277.449 136.235 275.237 137.403 270.993L138.57 266.75L138.571 266.748Z" fill="#86D1CD"/>
<path d="M104.698 253.077C104.698 253.077 133.734 257.319 138.569 266.747C138.569 266.747 139.195 271.225 142.813 275.87L143.146 277.836C143.146 277.836 139.128 271.641 137.401 270.989C137.401 270.989 142.093 261.293 104.698 253.075V253.077Z" fill="#6BB7BF"/>
<path d="M142.814 275.869C142.814 275.869 148.152 281.594 147.063 289.851L145.922 289.744C145.922 289.744 145.515 280.923 142.557 276.952C139.599 272.982 142.814 275.869 142.814 275.869Z" fill="#6BB7BF"/>
<path d="M159.767 234.462C159.767 234.462 159.767 231.832 160.142 230.957C160.518 230.083 161.891 226.521 161.891 226.521H167.263C167.263 226.521 168.263 229.771 168.325 230.832C168.386 231.894 168.325 234.462 168.325 234.462H159.767Z" fill="#233862"/>
<path d="M193.879 234.462C193.879 234.462 193.879 231.832 193.504 230.957C193.128 230.083 191.755 226.521 191.755 226.521H186.383C186.383 226.521 185.383 229.771 185.321 230.832C185.26 231.894 185.321 234.462 185.321 234.462H193.879Z" fill="#233862"/>
<path d="M160.439 143.372C160.439 143.372 161.378 172.076 159.974 188.454C158.568 204.832 159.984 227.624 159.984 227.624C159.984 227.624 164.48 230.102 169.351 227.624C169.351 227.624 174.696 195.983 174.661 188.454C174.626 180.434 180.477 144.624 180.477 144.624L160.437 143.372H160.439Z" fill="#F99746"/>
<path d="M193.68 227.622C193.68 227.622 189.186 230.101 184.313 227.622C184.313 227.622 178.97 195.983 179.004 188.453C179.019 185.065 177.985 176.72 176.784 168.211C175.14 156.571 173.187 144.622 173.187 144.622L193.204 141.006C193.204 141.006 192.287 172.076 193.691 188.453C195.097 204.83 193.68 227.622 193.68 227.622Z" fill="#F99746"/>
<path d="M179.004 188.453C179.018 185.065 177.984 176.72 176.783 168.211C178.03 163.128 181.066 158.237 181.066 158.237C184.909 169.014 179.005 188.453 179.005 188.453H179.004Z" fill="#ED7D2B"/>
<path d="M161.745 94.0147C161.745 94.0147 157.322 93.6864 154.705 94.5527C152.09 95.4191 134.729 80.4862 130.88 81.086C130.88 81.086 127.427 82.7488 127.367 86.684C127.367 86.684 141.094 105.533 149.987 110.394C158.878 115.256 159.488 128.7 159.488 128.7L164.444 124.992L161.745 94.0147Z" fill="#2A4E96"/>
<path d="M125.755 62.4134C125.849 62.6117 134.96 82.5445 134.96 82.5445C134.96 82.5445 130.347 87.4956 127.37 86.6878L121.902 62.1924L125.755 62.4151V62.4134Z" fill="#B56F40"/>
<path d="M125.757 62.413C125.757 62.413 125.71 59.2141 125.344 58.351C124.813 57.0978 124.948 55.5959 123.291 55.8771C121.635 56.1567 119.777 57.3823 119.728 57.9365C119.663 58.681 120.162 61.2411 120.733 61.8278C121.303 62.4163 122.36 63.3298 122.36 63.3298L125.757 62.413Z" fill="#B56F40"/>
<path d="M125.758 62.414C125.758 62.414 126.55 60.4586 126.976 59.9092C127.402 59.3598 125.399 56.3283 125.22 56.2422C125.22 56.2422 124.533 56.5592 125.287 57.9782C125.775 58.8949 125.082 59.5987 125.082 59.5987L125.757 62.414H125.758Z" fill="#B56F40"/>
<path d="M172.594 92.1386C172.594 92.1386 176.436 89.9247 179.17 89.5704C181.903 89.216 191.07 68.2316 194.799 67.1035C194.799 67.1035 198.632 67.1035 200.392 70.6258C200.392 70.6258 196.197 93.5641 190.293 101.8C184.39 110.036 189.134 123.162 189.134 123.162L183.598 121.223L172.595 92.1386H172.594Z" fill="#2A4E96"/>
<path d="M161.478 88.8285C161.478 88.8285 155.032 89.69 154.17 86.0376C153.309 82.3852 147.537 80.672 148.517 77.4309C149.72 73.455 147.366 70.2822 149.279 67.4051C151.387 64.2339 154.952 65.0856 156.399 63.1985C157.847 61.3114 160.756 59.2796 164.248 60.6352C167.739 61.9908 169.937 60.5068 172.341 61.9892C174.997 63.6276 174.613 66.3795 176.751 67.4393C178.709 68.4113 178.661 72.0653 177.741 75.1975C177.078 77.4553 179.842 78.9442 176.149 82.0813C174.612 83.3865 175.446 85.8019 170.303 87.1965C167.986 87.8239 162.679 87.6663 161.477 88.8285H161.478Z" fill="#233862"/>
<path d="M161.061 85.5227C161.061 85.5227 161.941 91.3157 161.681 94.0319L156.6 99.1813L179.169 98.4059L172.592 92.1382C172.592 92.1382 169.584 84.7083 169.884 81.6996C170.185 78.6893 161.061 85.5227 161.061 85.5227Z" fill="#B56F40"/>
<path d="M161.177 86.325C161.177 86.325 163.686 90.1838 166.941 89.4865C170.195 88.7892 170.255 84.9531 170.255 84.9531L161.177 86.325Z" fill="#99592E"/>
<path d="M166.268 87.9417C163.89 88.3383 158.944 85.9896 158.22 82.0804L157.092 75.9817C156.829 74.5546 157.607 73.2022 158.823 72.9779L167.866 71.3053C169.081 71.081 170.292 72.0644 170.557 73.4915L171.622 79.2456C172.38 83.3433 168.995 87.4882 166.268 87.9417Z" fill="#B56F40"/>
<path d="M193.26 141.925C193.26 141.925 184.846 145.229 176.885 146.702C173.413 147.344 169.571 147.661 166.492 147.814C163.09 147.988 160.622 147.962 160.622 147.962C160.622 147.962 158.882 148.444 158.313 139.527C157.879 132.743 157.828 129.264 156.369 123.162C155.566 119.804 154.681 115.346 152.955 112.582C149.079 106.375 153.588 97.6575 155.115 96.6562C155.115 96.6562 157.411 95.2843 161.681 94.0327C161.697 94.1173 164.906 97.3438 167.981 97.204C169.707 96.1214 171.055 95.2226 172.592 92.1391C175.23 91.9619 178.14 91.9538 181.301 92.2057C181.301 92.2057 181.869 93.5191 187.452 117.088C189.664 126.425 195.778 141.491 193.26 141.923V141.925Z" fill="#2A4E96"/>
<path d="M157.517 78.6318C157.517 78.6318 158.268 73.1297 163.804 72.9152C169.339 72.7006 170.02 73.7669 170.839 74.9973C171.66 76.2278 171.615 69.8024 171.615 69.8024L164.907 69.0889C164.907 69.0889 157.634 71.4734 157.061 72.7802C156.472 74.118 156.636 74.183 156.636 74.183L157.517 78.6318Z" fill="#233862"/>
<path d="M161.679 81.5669C160.749 81.7392 158.849 81.8773 158.223 80.3201C158.033 79.8488 158.046 79.3969 158.257 79.0117C158.489 78.589 158.948 78.2851 159.512 78.1811L162.373 77.6512C162.917 77.5504 163.325 77.6365 163.588 77.9064C164.031 78.3615 163.909 79.1905 163.837 79.5253C163.588 80.6712 163.068 81.2824 162.197 81.4449C162.161 81.4563 161.966 81.5116 161.679 81.5652V81.5669ZM159.546 78.3696C159.039 78.4639 158.629 78.7305 158.424 79.1043C158.242 79.4375 158.233 79.8325 158.4 80.2486C158.72 81.0467 159.442 81.4628 160.544 81.4823C161.383 81.497 162.137 81.2645 162.145 81.2629L162.156 81.2596C162.945 81.1134 163.419 80.5509 163.649 79.4863C163.701 79.249 163.839 78.4411 163.45 78.0413C163.236 77.8202 162.885 77.7519 162.407 77.8397L159.546 78.3696Z" fill="#2C3A64"/>
<path d="M168.277 80.3454C167.989 80.399 167.787 80.4153 167.75 80.4185C166.879 80.5778 166.175 80.1942 165.531 79.2125C165.344 78.9248 164.935 78.1949 165.183 77.6114C165.331 77.2652 165.682 77.0376 166.227 76.9368L169.088 76.4069C169.652 76.3029 170.188 76.4216 170.557 76.7337C170.892 77.0165 171.064 77.4359 171.056 77.943C171.03 79.6204 169.206 80.1715 168.275 80.3438L168.277 80.3454ZM166.263 77.127C165.785 77.2148 165.482 77.4033 165.361 77.6878C165.141 78.1998 165.559 78.9036 165.692 79.1084C166.289 80.0187 166.932 80.3763 167.721 80.23H167.732C167.732 80.23 168.527 80.1747 169.306 79.861C170.328 79.4481 170.853 78.8028 170.866 77.943C170.872 77.4944 170.723 77.1286 170.434 76.8832C170.108 76.6085 169.631 76.5045 169.123 76.5988L166.263 77.1286V77.127Z" fill="#2C3A64"/>
<path d="M163.519 78.8069C163.477 78.815 163.431 78.7971 163.404 78.7597C163.368 78.7077 163.379 78.6362 163.431 78.6005C163.475 78.5696 164.502 77.8609 165.595 78.2038C165.655 78.2234 165.689 78.2867 165.669 78.3469C165.652 78.407 165.586 78.4412 165.526 78.4217C164.54 78.1128 163.573 78.7809 163.563 78.7874C163.548 78.7971 163.534 78.8036 163.517 78.8069H163.519Z" fill="#2C3A64"/>
<path d="M163.076 84.3332C163.076 84.3332 164.88 83.9983 165.375 83.9089C165.857 83.8195 167.736 83.4717 167.736 83.4717C167.736 83.4717 167.07 85.271 165.688 85.4921C164.307 85.7132 163.076 84.3348 163.076 84.3348V84.3332Z" fill="#EBF3FA"/>
<path d="M191.318 48.0555C191.318 48.2749 191.756 70.1858 191.756 70.1858C191.756 70.1858 198.061 72.6468 200.39 70.628L194.693 46.1846L191.318 48.0555Z" fill="#B56F40"/>
<path d="M191.319 48.0545C191.319 48.0545 189.975 45.1515 189.93 44.2152C189.865 42.8564 189.093 41.5609 190.707 41.0944C192.321 40.6279 194.526 40.9253 194.811 41.4048C195.193 42.0469 195.853 44.5696 195.594 45.3465C195.336 46.1235 194.778 47.4043 194.778 47.4043L191.319 48.0529V48.0545Z" fill="#B56F40"/>
<path d="M191.318 48.0535C191.318 48.0535 189.756 46.6361 189.135 46.324C188.514 46.0136 189.004 42.4132 189.126 42.2588C189.126 42.2588 189.883 42.2458 189.818 43.8517C189.776 44.8888 190.705 45.2236 190.705 45.2236L191.318 48.0535Z" fill="#B56F40"/>
<path d="M121.746 68.4793L114.115 53.5666C113.986 53.3141 113.676 53.2141 113.424 53.3434L104.457 57.932C104.204 58.0612 104.104 58.3707 104.233 58.6232L111.865 73.5359C111.994 73.7884 112.303 73.8884 112.556 73.7592L121.523 69.1705C121.775 69.0413 121.875 68.7318 121.746 68.4793Z" fill="#F99746"/>
<path d="M129.519 60.9033C129.402 60.6741 129.373 60.4206 129.428 60.193C129.545 59.6989 130.085 59.2454 130.994 59.4193C131.572 59.5298 132.379 60.089 133.398 60.796C135.165 62.02 137.583 63.6991 139.118 63.1107C140.246 62.6783 140.896 61.8087 140.735 60.9488C140.582 60.128 139.574 59.1722 137.239 59.1787C136.962 59.1787 136.736 58.956 136.736 58.6781C136.736 58.4018 136.959 58.1758 137.237 58.1758C140.187 58.1677 141.488 59.5103 141.722 60.7651C141.974 62.1175 141.071 63.4374 139.477 64.0485C137.448 64.8255 134.887 63.0489 132.827 61.6218C132.014 61.0593 131.176 60.4758 130.805 60.4059C130.532 60.3539 130.415 60.4157 130.4 60.4352C130.405 60.4531 130.469 60.5473 130.664 60.6026C130.93 60.679 131.085 60.9553 131.01 61.2219C130.934 61.4885 130.657 61.6429 130.391 61.5681C129.952 61.443 129.667 61.1926 129.521 60.9066L129.519 60.9033Z" fill="#E6A330"/>
<path d="M124.889 51.8514C125.006 52.0806 125.194 52.2513 125.412 52.3407C125.882 52.5341 126.564 52.3618 126.956 51.5231C127.205 50.9883 127.223 50.0082 127.245 48.768C127.284 46.6191 127.34 43.6755 128.713 42.775C129.724 42.1134 130.808 42.0939 131.413 42.7278C131.99 43.3325 132.175 44.7076 130.804 46.598C130.641 46.8223 130.691 47.136 130.916 47.2986C131.14 47.4611 131.454 47.4107 131.616 47.1864C133.347 44.7987 133.021 42.9587 132.14 42.0354C131.19 41.0406 129.593 41 128.164 41.9363C126.347 43.1277 126.29 46.2453 126.244 48.7501C126.226 49.7384 126.207 50.7591 126.048 51.1005C125.93 51.3524 125.81 51.4109 125.787 51.4126C125.776 51.3979 125.737 51.2923 125.805 51.1021C125.9 50.842 125.765 50.5543 125.505 50.4601C125.245 50.3658 124.957 50.5007 124.863 50.7608C124.707 51.1899 124.744 51.567 124.89 51.8531L124.889 51.8514Z" fill="#E6A330"/>
<path d="M120.587 61.1587L119.376 58.7921C119.607 59.2423 124.896 56.6319 124.665 56.1816L125.876 58.5483C125.588 57.9859 120.299 60.5963 120.587 61.1587Z" fill="#E6A330"/>
<path d="M143.022 56.434C134.901 60.5902 126.839 61.0665 125.014 57.5003C123.188 53.9341 128.291 47.6729 136.411 43.5166C137.523 45.6898 141.406 53.2774 143.022 56.434Z" fill="#FFB93E"/>
<path d="M114.913 55.115C116.153 54.4795 118.513 56.6105 120.184 59.8727C121.854 63.135 122.202 66.2948 120.961 66.9304C119.944 64.9425 116.392 58.0018 114.915 55.115H114.913Z" fill="#FFB93E"/>
<path d="M142.519 56.9946L135.66 43.5912C135.496 43.271 135.622 42.8776 135.943 42.7134C136.263 42.5493 136.656 42.6761 136.82 42.9963L143.68 56.3997C143.844 56.7199 143.717 57.1132 143.397 57.2774C143.077 57.4416 142.683 57.3148 142.519 56.9946Z" fill="#E6A330"/>
<path d="M117.465 66.1643L113.486 58.3896L111 59.6618L114.979 67.4364L117.465 66.1643Z" fill="#FFB93E"/>
<path d="M121.646 56.4691C122.678 56.0254 124.125 55.7539 124.502 56.1814C124.879 56.6089 123.915 58.3904 122.929 59.0097C122.457 59.3055 120.078 59.4599 119.777 58.8065C119.54 58.2896 119.527 57.3793 121.645 56.4691H121.646Z" fill="#B56F40"/>
<path d="M208.409 236.268H145.156V301.458H208.409V236.268Z" fill="#E6A330"/>
<path d="M207.558 242.366H146.004C143.73 242.366 141.887 240.523 141.887 238.249C141.887 235.975 143.73 234.132 146.004 234.132H207.558C209.832 234.132 211.675 235.975 211.675 238.249C211.675 240.523 209.832 242.366 207.558 242.366Z" fill="#FFB93E"/>
<path d="M335.415 302.196H57.643C57.2854 302.196 56.9912 301.904 56.9912 301.544C56.9912 301.187 57.2838 300.893 57.643 300.893H335.416C335.774 300.893 336.068 301.185 336.068 301.544C336.068 301.902 335.776 302.196 335.416 302.196H335.415Z" fill="#2E3552"/>
<path d="M236.094 59.1002C236.094 59.1002 234.207 60.5208 232.027 60.4022C230.41 60.3144 228.755 58.8986 228.69 58.8027L227.51 61.093C227.51 61.093 230.527 62.7347 233.018 62.1316C233.782 61.9463 234.997 61.1239 235.533 60.5241C236.125 59.8625 236.094 59.1018 236.094 59.1018V59.1002Z" fill="#6BB7BF"/>
<path d="M235.826 54.4554L238.987 52.9697C238.987 52.9697 238.855 59.6893 233.415 61.9942C233.415 61.9942 236.698 57.2463 235.826 54.4554Z" fill="#86D1CD"/>
<path d="M126.694 127.079C126.694 127.079 127.563 130.284 126.274 133.065C125.317 135.13 122.606 136.552 122.446 136.588L124.821 139.322C124.821 139.322 128.538 136.24 129.047 132.672C129.203 131.578 128.761 129.564 128.259 128.55C127.705 127.431 126.694 127.077 126.694 127.077V127.079Z" fill="#6BB7BF"/>
<path d="M120.49 125.008L120.199 120.107C120.199 120.107 128.903 123.781 129.074 132.085C129.074 132.085 124.588 125.323 120.489 125.008H120.49Z" fill="#86D1CD"/>
<path d="M229.62 169.199C229.62 169.199 226.686 167.988 225.33 165.389C224.326 163.46 224.83 160.578 224.896 160.435L221.442 160.638C221.442 160.638 221.608 165.249 224.012 167.717C224.749 168.472 226.532 169.313 227.593 169.524C228.762 169.756 229.622 169.199 229.622 169.199H229.62Z" fill="#6BB7BF"/>
<path d="M234.802 165.71L238.682 168.348C238.682 168.348 230.823 172.797 224.437 168.083C224.437 168.083 232.174 168.631 234.802 165.71Z" fill="#86D1CD"/>
<path d="M276.895 130.875C276.895 130.875 281.489 127.684 284.938 132.442L288.725 130.813C288.725 130.813 286.854 127.861 279.514 129.17C274.711 130.026 276.895 130.876 276.895 130.876V130.875Z" fill="#5685D8"/>
<path d="M272.372 133.994C272.372 133.994 273.622 128.832 283.045 128.832C283.045 128.832 279.514 129.167 276.756 133.749L272.372 133.994Z" fill="#739AF0"/>
<path d="M101.827 182.712C101.827 182.712 97.0905 185.686 93.8656 180.774L90.0068 182.226C90.0068 182.226 91.7379 185.262 99.1321 184.295C103.969 183.663 101.827 182.712 101.827 182.712Z" fill="#5685D8"/>
<path d="M106.491 179.804C106.491 179.804 105.002 184.903 95.5908 184.465C95.5908 184.465 99.1327 184.295 102.101 179.846L106.491 179.804Z" fill="#739AF0"/>
<path d="M237.606 101.489C237.606 101.489 235.068 99.8861 234.802 97.9502C234.802 97.9502 232.331 98.0835 231.798 98.8848C231.798 98.8848 232.932 102.09 234.269 102.69C234.269 102.69 237.272 102.89 237.607 101.489H237.606Z" fill="#ED7D2B"/>
<path d="M73.5349 126.702C73.5349 126.702 70.9976 125.099 70.731 123.163C70.731 123.163 68.2604 123.296 67.7256 124.098C67.7256 124.098 68.8601 127.303 70.1963 127.903C70.1963 127.903 73.2001 128.103 73.5349 126.702Z" fill="#ED7D2B"/>
<path d="M59.4186 217.989C59.4186 217.989 62.0242 216.344 62.2973 214.356C62.2973 214.356 64.8346 214.493 65.3824 215.315C65.3824 215.315 64.2169 218.605 62.845 219.223C62.845 219.223 59.76 219.429 59.417 217.989H59.4186Z" fill="#F99746"/>
<path d="M188.738 260.156H164.814C160.006 260.156 156.108 264.054 156.108 268.861C156.108 273.669 160.006 277.566 164.814 277.566H188.738C193.546 277.566 197.443 273.669 197.443 268.861C197.443 264.054 193.546 260.156 188.738 260.156Z" fill="#FFB93E"/>
</g>
<defs>
<clipPath id="clip0_98_6610">
<rect width="368" height="325.088" fill="white"/>
</clipPath>
</defs>
</svg>
