<svg width="141" height="14" viewBox="0 0 141 14" fill="none" xmlns="http://www.w3.org/2000/svg">
<path d="M3.952 13.112C3.23733 13.112 2.54933 13.0213 1.888 12.84C1.23733 12.648 0.72 12.4187 0.336 12.152L1.104 10.632C1.488 10.8773 1.94667 11.08 2.48 11.24C3.01333 11.4 3.54667 11.48 4.08 11.48C4.70933 11.48 5.16267 11.3947 5.44 11.224C5.728 11.0533 5.872 10.824 5.872 10.536C5.872 10.3013 5.776 10.1253 5.584 10.008C5.392 9.88 5.14133 9.784 4.832 9.72C4.52267 9.656 4.176 9.59733 3.792 9.544C3.41867 9.49067 3.04 9.42133 2.656 9.336C2.28267 9.24 1.94133 9.10667 1.632 8.936C1.32267 8.75467 1.072 8.51467 0.88 8.216C0.688 7.91733 0.592 7.52267 0.592 7.032C0.592 6.488 0.746667 6.01867 1.056 5.624C1.36533 5.21867 1.79733 4.90933 2.352 4.696C2.91733 4.472 3.584 4.36 4.352 4.36C4.928 4.36 5.50933 4.424 6.096 4.552C6.68267 4.68 7.168 4.86133 7.552 5.096L6.784 6.616C6.37867 6.37067 5.968 6.20533 5.552 6.12C5.14667 6.024 4.74133 5.976 4.336 5.976C3.728 5.976 3.27467 6.06667 2.976 6.248C2.688 6.42933 2.544 6.65867 2.544 6.936C2.544 7.192 2.64 7.384 2.832 7.512C3.024 7.64 3.27467 7.74133 3.584 7.816C3.89333 7.89067 4.23467 7.95467 4.608 8.008C4.992 8.05067 5.37067 8.12 5.744 8.216C6.11733 8.312 6.45867 8.44533 6.768 8.616C7.088 8.776 7.344 9.00533 7.536 9.304C7.728 9.60267 7.824 9.992 7.824 10.472C7.824 11.0053 7.664 11.4693 7.344 11.864C7.03467 12.2587 6.592 12.568 6.016 12.792C5.44 13.0053 4.752 13.112 3.952 13.112ZM11.2781 13L8.14213 4.456H10.0301L12.7181 11.992H11.8221L14.6381 4.456H16.3181L19.0541 11.992H18.1741L20.9421 4.456H22.7181L19.5661 13H17.6461L15.1501 6.328H15.7421L13.1981 13H11.2781ZM24.0933 13V4.456H26.0933V13H24.0933ZM25.1013 3.048C24.7279 3.048 24.4186 2.93067 24.1733 2.696C23.9386 2.46133 23.8213 2.17867 23.8213 1.848C23.8213 1.50667 23.9386 1.224 24.1733 0.999999C24.4186 0.765333 24.7279 0.648 25.1013 0.648C25.4746 0.648 25.7786 0.76 26.0133 0.983999C26.2586 1.19733 26.3813 1.46933 26.3813 1.8C26.3813 2.152 26.2639 2.45067 26.0293 2.696C25.7946 2.93067 25.4853 3.048 25.1013 3.048ZM31.9343 13.112C30.9956 13.112 30.2703 12.872 29.7582 12.392C29.2463 11.9013 28.9903 11.1813 28.9903 10.232V2.568H30.9903V10.184C30.9903 10.5893 31.0916 10.904 31.2943 11.128C31.5076 11.352 31.8009 11.464 32.1743 11.464C32.6223 11.464 32.9956 11.3467 33.2943 11.112L33.8543 12.536C33.6196 12.728 33.3316 12.872 32.9903 12.968C32.6489 13.064 32.2969 13.112 31.9343 13.112ZM27.5823 6.12V4.52H33.2783V6.12H27.5823ZM39.1383 13.112C38.2423 13.112 37.4423 12.9253 36.7383 12.552C36.0449 12.168 35.5009 11.6453 35.1063 10.984C34.7116 10.3227 34.5143 9.57067 34.5143 8.728C34.5143 7.87467 34.7116 7.12267 35.1063 6.472C35.5009 5.81067 36.0449 5.29333 36.7383 4.92C37.4423 4.54667 38.2423 4.36 39.1383 4.36C39.9703 4.36 40.7009 4.53067 41.3303 4.872C41.9703 5.20267 42.4556 5.69333 42.7863 6.344L41.2503 7.24C40.9943 6.83467 40.6796 6.536 40.3063 6.344C39.9436 6.152 39.5489 6.056 39.1223 6.056C38.6316 6.056 38.1889 6.16267 37.7943 6.376C37.3996 6.58933 37.0903 6.89867 36.8663 7.304C36.6423 7.69867 36.5303 8.17333 36.5303 8.728C36.5303 9.28267 36.6423 9.76267 36.8663 10.168C37.0903 10.5627 37.3996 10.8667 37.7943 11.08C38.1889 11.2933 38.6316 11.4 39.1223 11.4C39.5489 11.4 39.9436 11.304 40.3063 11.112C40.6796 10.92 40.9943 10.6213 41.2503 10.216L42.7863 11.112C42.4556 11.752 41.9703 12.248 41.3303 12.6C40.7009 12.9413 39.9703 13.112 39.1383 13.112ZM49.285 4.36C49.9677 4.36 50.5757 4.49333 51.109 4.76C51.653 5.02667 52.0797 5.43733 52.389 5.992C52.6983 6.536 52.853 7.24 52.853 8.104V13H50.853V8.36C50.853 7.60267 50.6717 7.03733 50.309 6.664C49.957 6.29067 49.461 6.104 48.821 6.104C48.3517 6.104 47.9357 6.2 47.573 6.392C47.2103 6.584 46.9277 6.872 46.725 7.256C46.533 7.62933 46.437 8.104 46.437 8.68V13H44.437V1.128H46.437V6.76L46.005 6.056C46.3037 5.512 46.7357 5.096 47.301 4.808C47.877 4.50933 48.5383 4.36 49.285 4.36ZM63.028 13.112C62.0893 13.112 61.364 12.872 60.852 12.392C60.34 11.9013 60.084 11.1813 60.084 10.232V2.568H62.084V10.184C62.084 10.5893 62.1853 10.904 62.388 11.128C62.6013 11.352 62.8947 11.464 63.268 11.464C63.716 11.464 64.0893 11.3467 64.388 11.112L64.948 12.536C64.7133 12.728 64.4253 12.872 64.084 12.968C63.7427 13.064 63.3907 13.112 63.028 13.112ZM58.676 6.12V4.52H64.372V6.12H58.676ZM70.152 13.112C69.2773 13.112 68.4987 12.9253 67.816 12.552C67.1333 12.168 66.5947 11.6453 66.2 10.984C65.8053 10.3227 65.608 9.57067 65.608 8.728C65.608 7.87467 65.8053 7.12267 66.2 6.472C66.5947 5.81067 67.1333 5.29333 67.816 4.92C68.4987 4.54667 69.2773 4.36 70.152 4.36C71.0373 4.36 71.8213 4.54667 72.504 4.92C73.1973 5.29333 73.736 5.80533 74.12 6.456C74.5147 7.10667 74.712 7.864 74.712 8.728C74.712 9.57067 74.5147 10.3227 74.12 10.984C73.736 11.6453 73.1973 12.168 72.504 12.552C71.8213 12.9253 71.0373 13.112 70.152 13.112ZM70.152 11.4C70.6427 11.4 71.08 11.2933 71.464 11.08C71.848 10.8667 72.1467 10.5573 72.36 10.152C72.584 9.74667 72.696 9.272 72.696 8.728C72.696 8.17333 72.584 7.69867 72.36 7.304C72.1467 6.89867 71.848 6.58933 71.464 6.376C71.08 6.16267 70.648 6.056 70.168 6.056C69.6773 6.056 69.24 6.16267 68.856 6.376C68.4827 6.58933 68.184 6.89867 67.96 7.304C67.736 7.69867 67.624 8.17333 67.624 8.728C67.624 9.272 67.736 9.74667 67.96 10.152C68.184 10.5573 68.4827 10.8667 68.856 11.08C69.24 11.2933 69.672 11.4 70.152 11.4ZM85.0624 13.112C84.113 13.112 83.281 12.9253 82.5664 12.552C81.8624 12.168 81.313 11.6453 80.9184 10.984C80.5344 10.3227 80.3424 9.57067 80.3424 8.728C80.3424 7.87467 80.529 7.12267 80.9024 6.472C81.2864 5.81067 81.809 5.29333 82.4704 4.92C83.1424 4.54667 83.905 4.36 84.7584 4.36C85.5904 4.36 86.3317 4.54133 86.9824 4.904C87.633 5.26667 88.145 5.77867 88.5184 6.44C88.8917 7.10133 89.0784 7.88 89.0784 8.776C89.0784 8.86133 89.073 8.95733 89.0624 9.064C89.0624 9.17067 89.057 9.272 89.0464 9.368H81.9264V8.04H87.9904L87.2064 8.456C87.217 7.96533 87.1157 7.53333 86.9024 7.16C86.689 6.78667 86.3957 6.49333 86.0224 6.28C85.6597 6.06667 85.2384 5.96 84.7584 5.96C84.2677 5.96 83.8357 6.06667 83.4624 6.28C83.0997 6.49333 82.8117 6.792 82.5984 7.176C82.3957 7.54933 82.2944 7.992 82.2944 8.504V8.824C82.2944 9.336 82.4117 9.78933 82.6464 10.184C82.881 10.5787 83.2117 10.8827 83.6384 11.096C84.065 11.3093 84.5557 11.416 85.1104 11.416C85.5904 11.416 86.0224 11.3413 86.4064 11.192C86.7904 11.0427 87.1317 10.808 87.4304 10.488L88.5024 11.72C88.1184 12.168 87.633 12.5147 87.0464 12.76C86.4704 12.9947 85.809 13.112 85.0624 13.112ZM90.9995 13V1.128H92.9995V13H90.9995ZM99.6405 13.112C98.6912 13.112 97.8592 12.9253 97.1445 12.552C96.4405 12.168 95.8912 11.6453 95.4965 10.984C95.1125 10.3227 94.9205 9.57067 94.9205 8.728C94.9205 7.87467 95.1072 7.12267 95.4805 6.472C95.8645 5.81067 96.3872 5.29333 97.0485 4.92C97.7205 4.54667 98.4832 4.36 99.3365 4.36C100.169 4.36 100.91 4.54133 101.561 4.904C102.211 5.26667 102.723 5.77867 103.097 6.44C103.47 7.10133 103.657 7.88 103.657 8.776C103.657 8.86133 103.651 8.95733 103.641 9.064C103.641 9.17067 103.635 9.272 103.625 9.368H96.5045V8.04H102.569L101.785 8.456C101.795 7.96533 101.694 7.53333 101.481 7.16C101.267 6.78667 100.974 6.49333 100.601 6.28C100.238 6.06667 99.8165 5.96 99.3365 5.96C98.8458 5.96 98.4138 6.06667 98.0405 6.28C97.6778 6.49333 97.3898 6.792 97.1765 7.176C96.9738 7.54933 96.8725 7.992 96.8725 8.504V8.824C96.8725 9.336 96.9898 9.78933 97.2245 10.184C97.4592 10.5787 97.7898 10.8827 98.2165 11.096C98.6432 11.3093 99.1338 11.416 99.6885 11.416C100.169 11.416 100.601 11.3413 100.985 11.192C101.369 11.0427 101.71 10.808 102.009 10.488L103.081 11.72C102.697 12.168 102.211 12.5147 101.625 12.76C101.049 12.9947 100.387 13.112 99.6405 13.112ZM109.498 13.112C108.602 13.112 107.802 12.9253 107.098 12.552C106.404 12.168 105.86 11.6453 105.466 10.984C105.071 10.3227 104.874 9.57067 104.874 8.728C104.874 7.87467 105.071 7.12267 105.466 6.472C105.86 5.81067 106.404 5.29333 107.098 4.92C107.802 4.54667 108.602 4.36 109.498 4.36C110.33 4.36 111.06 4.53067 111.69 4.872C112.33 5.20267 112.815 5.69333 113.146 6.344L111.61 7.24C111.354 6.83467 111.039 6.536 110.666 6.344C110.303 6.152 109.908 6.056 109.482 6.056C108.991 6.056 108.548 6.16267 108.154 6.376C107.759 6.58933 107.45 6.89867 107.226 7.304C107.002 7.69867 106.89 8.17333 106.89 8.728C106.89 9.28267 107.002 9.76267 107.226 10.168C107.45 10.5627 107.759 10.8667 108.154 11.08C108.548 11.2933 108.991 11.4 109.482 11.4C109.908 11.4 110.303 11.304 110.666 11.112C111.039 10.92 111.354 10.6213 111.61 10.216L113.146 11.112C112.815 11.752 112.33 12.248 111.69 12.6C111.06 12.9413 110.33 13.112 109.498 13.112ZM118.2 13.112C117.261 13.112 116.536 12.872 116.024 12.392C115.512 11.9013 115.256 11.1813 115.256 10.232V2.568H117.256V10.184C117.256 10.5893 117.357 10.904 117.56 11.128C117.773 11.352 118.067 11.464 118.44 11.464C118.888 11.464 119.261 11.3467 119.56 11.112L120.12 12.536C119.885 12.728 119.597 12.872 119.256 12.968C118.915 13.064 118.563 13.112 118.2 13.112ZM113.848 6.12V4.52H119.544V6.12H113.848ZM121.765 13V4.456H123.669V6.808L123.445 6.12C123.701 5.544 124.101 5.10667 124.645 4.808C125.2 4.50933 125.888 4.36 126.709 4.36V6.264C126.624 6.24267 126.544 6.232 126.469 6.232C126.394 6.22133 126.32 6.216 126.245 6.216C125.488 6.216 124.885 6.44 124.437 6.888C123.989 7.32533 123.765 7.98133 123.765 8.856V13H121.765ZM128.406 13V4.456H130.406V13H128.406ZM129.414 3.048C129.04 3.048 128.731 2.93067 128.486 2.696C128.251 2.46133 128.134 2.17867 128.134 1.848C128.134 1.50667 128.251 1.224 128.486 0.999999C128.731 0.765333 129.04 0.648 129.414 0.648C129.787 0.648 130.091 0.76 130.326 0.983999C130.571 1.19733 130.694 1.46933 130.694 1.8C130.694 2.152 130.576 2.45067 130.342 2.696C130.107 2.93067 129.798 3.048 129.414 3.048ZM136.951 13.112C136.055 13.112 135.255 12.9253 134.551 12.552C133.857 12.168 133.313 11.6453 132.919 10.984C132.524 10.3227 132.327 9.57067 132.327 8.728C132.327 7.87467 132.524 7.12267 132.919 6.472C133.313 5.81067 133.857 5.29333 134.551 4.92C135.255 4.54667 136.055 4.36 136.951 4.36C137.783 4.36 138.513 4.53067 139.143 4.872C139.783 5.20267 140.268 5.69333 140.599 6.344L139.063 7.24C138.807 6.83467 138.492 6.536 138.119 6.344C137.756 6.152 137.361 6.056 136.935 6.056C136.444 6.056 136.001 6.16267 135.607 6.376C135.212 6.58933 134.903 6.89867 134.679 7.304C134.455 7.69867 134.343 8.17333 134.343 8.728C134.343 9.28267 134.455 9.76267 134.679 10.168C134.903 10.5627 135.212 10.8667 135.607 11.08C136.001 11.2933 136.444 11.4 136.935 11.4C137.361 11.4 137.756 11.304 138.119 11.112C138.492 10.92 138.807 10.6213 139.063 10.216L140.599 11.112C140.268 11.752 139.783 12.248 139.143 12.6C138.513 12.9413 137.783 13.112 136.951 13.112Z" fill="#19294F"/>
</svg>
